<svg width="48" height="48" viewBox="0 0 48 48" fill="none" xmlns="http://www.w3.org/2000/svg">
<g clip-path="url(#clip0_387_1757)">
<path d="M22.75 7C26.9816 7.00017 30.6995 9.14835 32.8984 12.4062L33.1064 12.7246L33.1084 12.7275C33.348 13.1097 33.7263 13.3552 34.1416 13.4199H34.1445C40.2951 14.392 44.9998 19.6982 45 26.126C45 33.1853 39.5614 38.9997 32.75 39H13.9727L13.9453 38.998C7.88904 38.6663 3 33.9081 3 28.001C3.00015 23.5077 5.84225 19.6813 9.85645 17.9717L9.8584 17.9707C10.2985 17.7843 10.6485 17.3586 10.7607 16.8057C11.8924 11.2141 16.8237 7 22.75 7Z" fill="#EFF0F1" stroke="white" stroke-width="2"/>
<path d="M11.3604 17.9414C15.2371 17.7917 20.002 17.817 24 18.4727C29.905 19.4411 37.4831 19.0365 41.4014 18.7188C43.0269 20.7472 43.9999 23.3206 44 26.126C44 32.6842 38.9592 37.9997 32.75 38H14C8.41969 37.6943 4 33.3243 4 28.001C4.00014 23.9495 6.56409 20.4609 10.249 18.8916C10.7101 18.6962 11.0907 18.3603 11.3604 17.9414Z" fill="#00BFDC"/>
</g>
<defs>
<clipPath id="clip0_387_1757">
<rect width="48" height="48" fill="white"/>
</clipPath>
</defs>
</svg>
