<svg width="64" height="64" viewBox="0 0 64 64" fill="none" xmlns="http://www.w3.org/2000/svg">
<rect width="64" height="64" fill="white"/>
<mask id="path-1-outside-1_433_808" maskUnits="userSpaceOnUse" x="7" y="13" width="51" height="39" fill="black">
<rect fill="white" x="7" y="13" width="51" height="39"/>
<path d="M30.874 15C35.5516 15 39.6456 17.4493 41.9707 21.1348C42.4266 21.8623 43.1612 22.3472 43.9863 22.4756C50.6059 23.5219 55.666 29.2332 55.666 36.1475C55.666 43.7988 49.7852 49.9998 42.541 50H20.666C14.1559 49.6432 9.00005 44.5454 9 38.335C9 33.6081 11.9908 29.5369 16.29 27.7061C17.1879 27.3255 17.8307 26.4938 18.0312 25.5049C19.244 19.5131 24.5279 15 30.874 15Z"/>
</mask>
<path d="M30.874 15C35.5516 15 39.6456 17.4493 41.9707 21.1348C42.4266 21.8623 43.1612 22.3472 43.9863 22.4756C50.6059 23.5219 55.666 29.2332 55.666 36.1475C55.666 43.7988 49.7852 49.9998 42.541 50H20.666C14.1559 49.6432 9.00005 44.5454 9 38.335C9 33.6081 11.9908 29.5369 16.29 27.7061C17.1879 27.3255 17.8307 26.4938 18.0312 25.5049C19.244 19.5131 24.5279 15 30.874 15Z" fill="#F7F7F7"/>
<path d="M30.874 15L30.874 13L30.874 13L30.874 15ZM41.9707 21.1348L43.6654 20.0727L43.6622 20.0676L41.9707 21.1348ZM43.9863 22.4756L44.2986 20.5001L44.2938 20.4994L43.9863 22.4756ZM55.666 36.1475L57.666 36.1475V36.1475H55.666ZM42.541 50L42.541 52L42.5411 52L42.541 50ZM20.666 50L20.5566 51.997L20.6112 52H20.666V50ZM9 38.335L7 38.335L7 38.335L9 38.335ZM16.29 27.7061L15.5096 25.8646L15.5064 25.866L16.29 27.7061ZM18.0312 25.5049L19.9913 25.9025L19.9915 25.9016L18.0312 25.5049ZM30.874 15V17C34.8338 17 38.3034 19.0702 40.2792 22.2019L41.9707 21.1348L43.6622 20.0676C40.9878 15.8284 36.2695 13 30.874 13V15ZM41.9707 21.1348L40.276 22.1968C41.0346 23.4074 42.2709 24.2327 43.6788 24.4518L43.9863 22.4756L44.2938 20.4994C44.0515 20.4617 43.8186 20.3172 43.6654 20.0728L41.9707 21.1348ZM43.9863 22.4756L43.6741 24.4511C49.3402 25.3467 53.666 30.2359 53.666 36.1475H55.666H57.666C57.666 28.2305 51.8716 21.6972 44.2986 20.5001L43.9863 22.4756ZM55.666 36.1475L53.666 36.1475C53.666 42.7967 48.5809 47.9999 42.541 48L42.541 50L42.5411 52C50.9895 51.9998 57.666 44.8009 57.666 36.1475L55.666 36.1475ZM42.541 50V48H20.666V50V52H42.541V50ZM20.666 50L20.7755 48.003C15.2173 47.6984 11 43.378 11 38.3349L9 38.335L7 38.335C7.00005 45.7127 13.0944 51.588 20.5566 51.997L20.666 50ZM9 38.335H11C11 34.4919 13.4335 31.0963 17.0737 29.5461L16.29 27.7061L15.5064 25.866C10.5482 27.9774 7 32.7243 7 38.335H9ZM16.29 27.7061L17.0704 29.5475C18.627 28.8879 19.6711 27.481 19.9913 25.9025L18.0312 25.5049L16.0712 25.1073C15.9902 25.5066 15.7488 25.7632 15.5096 25.8646L16.29 27.7061ZM18.0312 25.5049L19.9915 25.9016C21.0198 20.8211 25.5012 17 30.874 17L30.874 15L30.874 13C23.5545 13.0001 17.4681 18.2051 16.071 25.1081L18.0312 25.5049Z" fill="#F5F5F5" mask="url(#path-1-outside-1_433_808)"/>
<path d="M32.333 30.105C38.972 28.7947 47.3599 28.8651 53.8105 29.2251C54.9892 31.2602 55.666 33.6226 55.666 36.147C55.666 43.7984 49.7853 49.9995 42.541 49.9995H20.667C14.1567 49.6429 9 44.545 9 38.3345C9.00004 35.5697 10.0236 33.0296 11.7334 31.0308C18.0539 31.3477 25.9915 31.3566 32.333 30.105Z" fill="#00C3E0"/>
</svg>
