<svg width="193" height="98" viewBox="0 0 193 98" fill="none" xmlns="http://www.w3.org/2000/svg">
<g clip-path="url(#clip0_433_700)">
<rect width="193" height="98" fill="#00C3E0"/>
<path d="M60.624 22C66.1035 22 70.8993 24.8693 73.623 29.1865C74.1571 30.0386 75.0169 30.6064 75.9834 30.7568C83.7379 31.9824 89.6659 38.6729 89.666 46.7725C89.666 55.7355 82.7771 62.9998 74.291 63H48.666C41.0398 62.582 35 56.6101 35 49.335C35.0001 43.7979 38.5031 39.0295 43.5391 36.8848C44.5911 36.4391 45.3441 35.4643 45.5791 34.3057C46.9997 27.2867 53.1899 22 60.624 22Z" fill="white" fill-opacity="0.5"/>
<path d="M62.333 43.1211C70.6414 41.7364 81.2649 41.8948 89.043 42.3067C89.4483 43.7248 89.666 45.2227 89.666 46.7725C89.666 55.7355 82.7771 62.9998 74.291 63H48.666C41.0398 62.582 35 56.6101 35 49.335C35 47.4275 35.4151 45.6111 36.166 43.9619C43.8902 44.3522 54.2163 44.4739 62.333 43.1211Z" fill="white"/>
<path d="M62.333 43.1211C70.6414 41.7364 81.2649 41.8948 89.043 42.3067C89.4483 43.7248 89.666 45.2227 89.666 46.7725C89.666 55.7355 82.7771 62.9998 74.291 63H48.666C41.0398 62.582 35 56.6101 35 49.335C35 47.4275 35.4151 45.6111 36.166 43.9619C43.8902 44.3522 54.2163 44.4739 62.333 43.1211Z" fill="white" fill-opacity="0.05"/>
<path d="M52.648 70.178L51.598 68.414C51.558 68.346 51.556 68.28 51.592 68.216C51.632 68.152 51.69 68.12 51.766 68.12H52.252C52.476 68.12 52.64 68.222 52.744 68.426L53.56 70.022C53.56 70.026 53.562 70.028 53.566 70.028C53.57 70.028 53.572 70.026 53.572 70.022L54.388 68.426C54.492 68.222 54.656 68.12 54.88 68.12H55.342C55.418 68.12 55.474 68.152 55.51 68.216C55.55 68.28 55.55 68.346 55.51 68.414L54.46 70.178C54.452 70.186 54.45 70.196 54.454 70.208C54.462 70.216 54.472 70.22 54.484 70.22H54.952C55.032 70.22 55.1 70.248 55.156 70.304C55.216 70.36 55.246 70.428 55.246 70.508C55.246 70.588 55.216 70.658 55.156 70.718C55.1 70.774 55.032 70.802 54.952 70.802H54.148C54.112 70.802 54.09 70.818 54.082 70.85V70.874V71.15C54.082 71.182 54.098 71.198 54.13 71.198H54.952C55.032 71.198 55.1 71.228 55.156 71.288C55.216 71.344 55.246 71.412 55.246 71.492C55.246 71.572 55.216 71.64 55.156 71.696C55.1 71.752 55.032 71.78 54.952 71.78H54.13C54.098 71.78 54.082 71.798 54.082 71.834V72.158C54.082 72.25 54.048 72.33 53.98 72.398C53.912 72.466 53.832 72.5 53.74 72.5H53.368C53.276 72.5 53.196 72.466 53.128 72.398C53.064 72.33 53.032 72.25 53.032 72.158V71.834C53.032 71.798 53.014 71.78 52.978 71.78H52.156C52.076 71.78 52.006 71.752 51.946 71.696C51.89 71.64 51.862 71.572 51.862 71.492C51.862 71.412 51.89 71.344 51.946 71.288C52.006 71.228 52.076 71.198 52.156 71.198H52.978C53.014 71.198 53.032 71.182 53.032 71.15V70.874C53.032 70.87 53.03 70.866 53.026 70.862C53.026 70.858 53.026 70.854 53.026 70.85C53.018 70.818 52.996 70.802 52.96 70.802H52.156C52.076 70.802 52.006 70.774 51.946 70.718C51.89 70.658 51.862 70.588 51.862 70.508C51.862 70.428 51.89 70.36 51.946 70.304C52.006 70.248 52.076 70.22 52.156 70.22H52.624C52.636 70.22 52.644 70.216 52.648 70.208C52.656 70.196 52.656 70.186 52.648 70.178Z" fill="white" fill-opacity="0.5"/>
<path d="M58.644 72.968C58.516 72.9413 58.4093 72.8747 58.324 72.768C58.244 72.6613 58.204 72.5387 58.204 72.4V72.152C58.204 72.04 58.2493 71.952 58.34 71.888C58.4307 71.824 58.5293 71.8053 58.636 71.832C59.068 71.944 59.412 72 59.668 72C60.452 72 60.844 71.672 60.844 71.016C60.844 70.4827 60.5773 70.216 60.044 70.216C59.9213 70.216 59.8147 70.2347 59.724 70.272C59.692 70.2827 59.6253 70.3093 59.524 70.352C59.428 70.3893 59.3533 70.4187 59.3 70.44C59.252 70.456 59.188 70.4747 59.108 70.496C59.0333 70.512 58.9613 70.52 58.892 70.52H58.644C58.5213 70.52 58.4173 70.4747 58.332 70.384C58.2467 70.2933 58.2067 70.1867 58.212 70.064L58.324 67.616C58.3347 67.488 58.3853 67.3813 58.476 67.296C58.5667 67.2053 58.676 67.16 58.804 67.16H61.452C61.5747 67.16 61.6813 67.2053 61.772 67.296C61.8627 67.3867 61.908 67.4933 61.908 67.616V67.8C61.908 67.9227 61.8627 68.0293 61.772 68.12C61.6813 68.2107 61.5747 68.256 61.452 68.256H59.644C59.596 68.256 59.572 68.2773 59.572 68.32L59.524 69.336C59.524 69.3413 59.5267 69.344 59.532 69.344H59.548C59.804 69.2373 60.0573 69.184 60.308 69.184C60.9053 69.184 61.364 69.344 61.684 69.664C62.0093 69.9787 62.172 70.4293 62.172 71.016C62.172 72.392 61.356 73.08 59.724 73.08C59.3667 73.08 59.0067 73.0427 58.644 72.968ZM63.8471 72.968C63.7191 72.9413 63.6125 72.8747 63.5271 72.768C63.4471 72.6613 63.4071 72.5387 63.4071 72.4V72.152C63.4071 72.04 63.4525 71.952 63.5431 71.888C63.6338 71.824 63.7325 71.8053 63.8391 71.832C64.2711 71.944 64.6151 72 64.8711 72C65.6551 72 66.0471 71.672 66.0471 71.016C66.0471 70.4827 65.7805 70.216 65.2471 70.216C65.1245 70.216 65.0178 70.2347 64.9271 70.272C64.8951 70.2827 64.8285 70.3093 64.7271 70.352C64.6311 70.3893 64.5565 70.4187 64.5031 70.44C64.4551 70.456 64.3911 70.4747 64.3111 70.496C64.2365 70.512 64.1645 70.52 64.0951 70.52H63.8471C63.7245 70.52 63.6205 70.4747 63.5351 70.384C63.4498 70.2933 63.4098 70.1867 63.4151 70.064L63.5271 67.616C63.5378 67.488 63.5885 67.3813 63.6791 67.296C63.7698 67.2053 63.8791 67.16 64.0071 67.16H66.6551C66.7778 67.16 66.8845 67.2053 66.9751 67.296C67.0658 67.3867 67.1111 67.4933 67.1111 67.616V67.8C67.1111 67.9227 67.0658 68.0293 66.9751 68.12C66.8845 68.2107 66.7778 68.256 66.6551 68.256H64.8471C64.7991 68.256 64.7751 68.2773 64.7751 68.32L64.7271 69.336C64.7271 69.3413 64.7298 69.344 64.7351 69.344H64.7511C65.0071 69.2373 65.2605 69.184 65.5111 69.184C66.1085 69.184 66.5671 69.344 66.8871 69.664C67.2125 69.9787 67.3751 70.4293 67.3751 71.016C67.3751 72.392 66.5591 73.08 64.9271 73.08C64.5698 73.08 64.2098 73.0427 63.8471 72.968ZM69.0503 72.968C68.9223 72.9413 68.8156 72.8747 68.7303 72.768C68.6503 72.6613 68.6103 72.5387 68.6103 72.4V72.152C68.6103 72.04 68.6556 71.952 68.7463 71.888C68.8369 71.824 68.9356 71.8053 69.0423 71.832C69.4743 71.944 69.8183 72 70.0743 72C70.8583 72 71.2503 71.672 71.2503 71.016C71.2503 70.4827 70.9836 70.216 70.4503 70.216C70.3276 70.216 70.2209 70.2347 70.1303 70.272C70.0983 70.2827 70.0316 70.3093 69.9303 70.352C69.8343 70.3893 69.7596 70.4187 69.7063 70.44C69.6583 70.456 69.5943 70.4747 69.5143 70.496C69.4396 70.512 69.3676 70.52 69.2983 70.52H69.0503C68.9276 70.52 68.8236 70.4747 68.7383 70.384C68.6529 70.2933 68.6129 70.1867 68.6183 70.064L68.7303 67.616C68.7409 67.488 68.7916 67.3813 68.8823 67.296C68.9729 67.2053 69.0823 67.16 69.2103 67.16H71.8583C71.9809 67.16 72.0876 67.2053 72.1783 67.296C72.2689 67.3867 72.3142 67.4933 72.3142 67.616V67.8C72.3142 67.9227 72.2689 68.0293 72.1783 68.12C72.0876 68.2107 71.9809 68.256 71.8583 68.256H70.0503C70.0023 68.256 69.9783 68.2773 69.9783 68.32L69.9303 69.336C69.9303 69.3413 69.9329 69.344 69.9383 69.344H69.9543C70.2103 69.2373 70.4636 69.184 70.7143 69.184C71.3116 69.184 71.7703 69.344 72.0903 69.664C72.4156 69.9787 72.5783 70.4293 72.5783 71.016C72.5783 72.392 71.7623 73.08 70.1303 73.08C69.7729 73.08 69.4129 73.0427 69.0503 72.968Z" fill="white"/>
<path d="M48.944 78.628C48.9413 78.6307 48.94 78.6333 48.94 78.636C48.94 78.6387 48.9413 78.64 48.944 78.64H50C50.0507 78.64 50.0933 78.6573 50.128 78.692C50.1627 78.7267 50.18 78.7693 50.18 78.82C50.18 78.8707 50.1627 78.9133 50.128 78.948C50.0933 78.9827 50.0507 79 50 79H48.52C48.4693 79 48.4267 78.9827 48.392 78.948C48.3573 78.9133 48.34 78.8707 48.34 78.82C48.34 78.7027 48.3867 78.6053 48.48 78.528C48.9653 78.136 49.2933 77.8253 49.464 77.596C49.6373 77.364 49.724 77.1387 49.724 76.92C49.724 76.5787 49.5427 76.408 49.18 76.408C49.0013 76.408 48.804 76.4547 48.588 76.548C48.5427 76.5667 48.5 76.564 48.46 76.54C48.42 76.516 48.4 76.48 48.4 76.432C48.4 76.3653 48.4173 76.3053 48.452 76.252C48.4867 76.1987 48.5347 76.1627 48.596 76.144C48.812 76.0747 49.0267 76.04 49.24 76.04C49.5387 76.04 49.7693 76.1147 49.932 76.264C50.0973 76.4107 50.18 76.616 50.18 76.88C50.18 77.144 50.0947 77.4013 49.924 77.652C49.756 77.9 49.4293 78.2253 48.944 78.628ZM52.2595 76.656C52.1555 76.48 51.9955 76.392 51.7795 76.392C51.5635 76.392 51.4022 76.48 51.2955 76.656C51.1915 76.8293 51.1395 77.124 51.1395 77.54C51.1395 77.956 51.1915 78.252 51.2955 78.428C51.4022 78.6013 51.5635 78.688 51.7795 78.688C51.9955 78.688 52.1555 78.6013 52.2595 78.428C52.3662 78.252 52.4195 77.956 52.4195 77.54C52.4195 77.124 52.3662 76.8293 52.2595 76.656ZM52.5875 78.684C52.4089 78.9213 52.1395 79.04 51.7795 79.04C51.4195 79.04 51.1489 78.9213 50.9675 78.684C50.7889 78.4467 50.6995 78.0653 50.6995 77.54C50.6995 77.0147 50.7889 76.6333 50.9675 76.396C51.1489 76.1587 51.4195 76.04 51.7795 76.04C52.1395 76.04 52.4089 76.1587 52.5875 76.396C52.7689 76.6333 52.8595 77.0147 52.8595 77.54C52.8595 78.0653 52.7689 78.4467 52.5875 78.684ZM53.9831 78.628C53.9804 78.6307 53.9791 78.6333 53.9791 78.636C53.9791 78.6387 53.9804 78.64 53.9831 78.64H55.0391C55.0897 78.64 55.1324 78.6573 55.1671 78.692C55.2017 78.7267 55.2191 78.7693 55.2191 78.82C55.2191 78.8707 55.2017 78.9133 55.1671 78.948C55.1324 78.9827 55.0897 79 55.0391 79H53.5591C53.5084 79 53.4657 78.9827 53.4311 78.948C53.3964 78.9133 53.3791 78.8707 53.3791 78.82C53.3791 78.7027 53.4257 78.6053 53.5191 78.528C54.0044 78.136 54.3324 77.8253 54.5031 77.596C54.6764 77.364 54.7631 77.1387 54.7631 76.92C54.7631 76.5787 54.5817 76.408 54.2191 76.408C54.0404 76.408 53.8431 76.4547 53.6271 76.548C53.5817 76.5667 53.5391 76.564 53.4991 76.54C53.4591 76.516 53.4391 76.48 53.4391 76.432C53.4391 76.3653 53.4564 76.3053 53.4911 76.252C53.5257 76.1987 53.5737 76.1627 53.6351 76.144C53.8511 76.0747 54.0657 76.04 54.2791 76.04C54.5777 76.04 54.8084 76.1147 54.9711 76.264C55.1364 76.4107 55.2191 76.616 55.2191 76.88C55.2191 77.144 55.1337 77.4013 54.9631 77.652C54.7951 77.9 54.4684 78.2253 53.9831 78.628ZM56.8386 77.372C56.6573 77.372 56.5093 77.4307 56.3946 77.548C56.2826 77.6627 56.2266 77.8133 56.2266 78C56.2266 78.208 56.2839 78.3733 56.3986 78.496C56.5133 78.6187 56.6599 78.68 56.8386 78.68C57.0333 78.68 57.1853 78.6227 57.2946 78.508C57.4039 78.3907 57.4586 78.2213 57.4586 78C57.4586 77.808 57.4013 77.656 57.2866 77.544C57.1746 77.4293 57.0253 77.372 56.8386 77.372ZM56.8386 79.04C56.1319 79.04 55.7786 78.6 55.7786 77.72C55.7786 77.1573 55.8853 76.7373 56.0986 76.46C56.3119 76.18 56.6186 76.04 57.0186 76.04C57.1439 76.04 57.2693 76.052 57.3946 76.076C57.4506 76.0867 57.4946 76.1147 57.5266 76.16C57.5613 76.2027 57.5786 76.2533 57.5786 76.312C57.5786 76.3573 57.5599 76.3933 57.5226 76.42C57.4853 76.4467 57.4426 76.4547 57.3946 76.444C57.2693 76.4147 57.1439 76.4 57.0186 76.4C56.8106 76.4 56.6373 76.476 56.4986 76.628C56.3626 76.7773 56.2813 76.992 56.2546 77.272C56.2546 77.2773 56.2559 77.28 56.2586 77.28H56.2666C56.4266 77.12 56.6506 77.04 56.9386 77.04C57.2346 77.04 57.4679 77.1267 57.6386 77.3C57.8119 77.4733 57.8986 77.7067 57.8986 78C57.8986 78.3253 57.8026 78.58 57.6106 78.764C57.4186 78.948 57.1613 79.04 56.8386 79.04ZM58.4421 78.528C58.3915 78.528 58.3475 78.5107 58.3101 78.476C58.2755 78.4413 58.2581 78.3973 58.2581 78.344C58.2581 78.2907 58.2755 78.2467 58.3101 78.212C58.3475 78.1773 58.3915 78.16 58.4421 78.16H58.9421C58.9661 78.16 58.9781 78.1493 58.9781 78.128V77.296C58.9781 77.2347 59.0008 77.1813 59.0461 77.136C59.0915 77.0907 59.1448 77.068 59.2061 77.068H60.0221C60.0461 77.068 60.0581 77.0573 60.0581 77.036V76.492C60.0581 76.4707 60.0461 76.46 60.0221 76.46H59.2341C59.2101 76.46 59.1941 76.4693 59.1861 76.488C59.0661 76.7733 58.9168 77.0627 58.7381 77.356C58.7088 77.404 58.6648 77.4347 58.6061 77.448C58.5501 77.4587 58.4995 77.4467 58.4541 77.412C58.4061 77.3773 58.3768 77.332 58.3661 77.276C58.3581 77.2173 58.3688 77.1627 58.3981 77.112C58.6275 76.7467 58.8195 76.34 58.9741 75.892C58.9955 75.836 59.0301 75.7933 59.0781 75.764C59.1288 75.7347 59.1835 75.7253 59.2421 75.736C59.2955 75.7467 59.3368 75.776 59.3661 75.824C59.3955 75.872 59.4008 75.9227 59.3821 75.976C59.3768 75.9867 59.3715 76.0027 59.3661 76.024C59.3608 76.0427 59.3555 76.0573 59.3501 76.068C59.3448 76.0893 59.3528 76.1 59.3741 76.1H61.5381C61.5888 76.1 61.6315 76.1173 61.6661 76.152C61.7008 76.1867 61.7181 76.2293 61.7181 76.28C61.7181 76.3307 61.7008 76.3733 61.6661 76.408C61.6315 76.4427 61.5888 76.46 61.5381 76.46H60.5341C60.5101 76.46 60.4981 76.4707 60.4981 76.492V77.036C60.4981 77.0573 60.5101 77.068 60.5341 77.068H61.4181C61.4688 77.068 61.5115 77.0853 61.5461 77.12C61.5808 77.1547 61.5981 77.1973 61.5981 77.248C61.5981 77.2987 61.5808 77.3427 61.5461 77.38C61.5115 77.4147 61.4688 77.432 61.4181 77.432H60.5341C60.5101 77.432 60.4981 77.4427 60.4981 77.464V78.128C60.4981 78.1493 60.5101 78.16 60.5341 78.16H61.7141C61.7648 78.16 61.8075 78.1773 61.8421 78.212C61.8795 78.2467 61.8981 78.2907 61.8981 78.344C61.8981 78.3973 61.8795 78.4413 61.8421 78.476C61.8075 78.5107 61.7648 78.528 61.7141 78.528H60.5341C60.5101 78.528 60.4981 78.54 60.4981 78.564V79.14C60.4981 79.2013 60.4755 79.2533 60.4301 79.296C60.3875 79.3387 60.3368 79.36 60.2781 79.36C60.2195 79.36 60.1675 79.3387 60.1221 79.296C60.0795 79.2533 60.0581 79.2013 60.0581 79.14V78.564C60.0581 78.54 60.0461 78.528 60.0221 78.528H58.4421ZM59.3981 77.464V78.128C59.3981 78.1493 59.4101 78.16 59.4341 78.16H60.0221C60.0461 78.16 60.0581 78.1493 60.0581 78.128V77.464C60.0581 77.4427 60.0461 77.432 60.0221 77.432H59.4341C59.4101 77.432 59.3981 77.4427 59.3981 77.464ZM63.6795 79.232C63.6288 79.2507 63.5782 79.2493 63.5275 79.228C63.4795 79.2093 63.4448 79.176 63.4235 79.128C63.4048 79.0827 63.4048 79.0373 63.4235 78.992C63.4448 78.9467 63.4782 78.916 63.5235 78.9C64.0382 78.716 64.4675 78.5053 64.8115 78.268C64.8168 78.2653 64.8182 78.2613 64.8155 78.256C64.8155 78.2507 64.8128 78.248 64.8075 78.248H64.0395C64.0182 78.248 64.0048 78.2587 63.9995 78.28C63.9835 78.3387 63.9515 78.384 63.9035 78.416C63.8555 78.448 63.8008 78.4613 63.7395 78.456C63.6862 78.4507 63.6435 78.4253 63.6115 78.38C63.5822 78.3347 63.5742 78.2853 63.5875 78.232C63.6435 77.992 63.6915 77.756 63.7315 77.524C63.7422 77.46 63.7728 77.4067 63.8235 77.364C63.8742 77.3213 63.9315 77.3 63.9955 77.3H64.9595C64.9835 77.3 64.9955 77.288 64.9955 77.264V77.024C64.9955 77 64.9835 76.988 64.9595 76.988H63.7715C63.7262 76.988 63.6875 76.972 63.6555 76.94C63.6235 76.908 63.6075 76.8693 63.6075 76.824C63.6075 76.776 63.6235 76.736 63.6555 76.704C63.6635 76.696 63.6595 76.692 63.6435 76.692C63.5875 76.692 63.5382 76.6707 63.4955 76.628C63.4582 76.5907 63.4395 76.5467 63.4395 76.496C63.4422 76.4427 63.4622 76.3973 63.4995 76.36C63.6542 76.2053 63.7835 76.036 63.8875 75.852C63.9168 75.7987 63.9568 75.76 64.0075 75.736C64.0608 75.712 64.1168 75.7053 64.1755 75.716H64.1875C64.2382 75.7267 64.2742 75.7547 64.2955 75.8C64.3195 75.8453 64.3208 75.8907 64.2995 75.936C64.2942 75.952 64.2995 75.96 64.3155 75.96H65.0275C65.0862 75.96 65.1355 75.98 65.1755 76.02C65.2155 76.06 65.2355 76.1093 65.2355 76.168C65.2355 76.1733 65.2368 76.1773 65.2395 76.18C65.2448 76.1827 65.2502 76.1827 65.2555 76.18C65.3595 76.0707 65.4488 75.9587 65.5235 75.844C65.5955 75.732 65.6928 75.6893 65.8155 75.716H65.8235C65.8742 75.7267 65.9102 75.7547 65.9315 75.8C65.9555 75.8453 65.9555 75.8907 65.9315 75.936C65.9208 75.952 65.9262 75.96 65.9475 75.96H66.8395C66.8875 75.96 66.9288 75.9773 66.9635 76.012C66.9982 76.0467 67.0155 76.088 67.0155 76.136C67.0155 76.184 66.9982 76.2253 66.9635 76.26C66.9288 76.2947 66.8875 76.312 66.8395 76.312H66.3475C66.3288 76.312 66.3222 76.3213 66.3275 76.34C66.3435 76.3773 66.3648 76.4333 66.3915 76.508C66.4075 76.5453 66.4088 76.5853 66.3955 76.628C66.3902 76.6493 66.3982 76.66 66.4195 76.66H66.5595C66.6208 76.66 66.6728 76.6827 66.7155 76.728C66.7608 76.7733 66.7835 76.8267 66.7835 76.888V77.392C66.7835 77.4533 66.7608 77.5067 66.7155 77.552C66.6728 77.5973 66.6208 77.62 66.5595 77.62H65.4715C65.4475 77.62 65.4355 77.632 65.4355 77.656V77.896C65.4355 77.9173 65.4475 77.928 65.4715 77.928H66.7195C66.7808 77.928 66.8328 77.9507 66.8755 77.996C66.9208 78.0413 66.9435 78.0947 66.9435 78.156C66.9382 78.46 66.9182 78.6827 66.8835 78.824C66.8488 78.9627 66.7982 79.0533 66.7315 79.096C66.6675 79.1387 66.5648 79.16 66.4235 79.16C66.3062 79.16 66.1688 79.1547 66.0115 79.144C65.9608 79.1387 65.9182 79.1173 65.8835 79.08C65.8488 79.0453 65.8315 79.0027 65.8315 78.952C65.8315 78.904 65.8488 78.864 65.8835 78.832C65.9208 78.7973 65.9635 78.7813 66.0115 78.784C66.1822 78.7947 66.2768 78.8 66.2955 78.8C66.3355 78.8 66.3635 78.7987 66.3795 78.796C66.3955 78.7907 66.4115 78.7813 66.4275 78.768C66.4462 78.7547 66.4582 78.7267 66.4635 78.684C66.4688 78.6413 66.4728 78.592 66.4755 78.536C66.4782 78.48 66.4808 78.3973 66.4835 78.288C66.4835 78.2613 66.4728 78.248 66.4515 78.248H65.4715C65.4475 78.248 65.4355 78.26 65.4355 78.284V79.1C65.4355 79.1613 65.4128 79.2133 65.3675 79.256C65.3248 79.2987 65.2742 79.32 65.2155 79.32C65.1568 79.32 65.1048 79.2987 65.0595 79.256C65.0168 79.2133 64.9955 79.1613 64.9955 79.1V78.568C64.9955 78.5467 64.9848 78.5427 64.9635 78.556C64.6168 78.8093 64.1888 79.0347 63.6795 79.232ZM66.3675 77.264V77.024C66.3675 77 66.3555 76.988 66.3315 76.988H65.4715C65.4475 76.988 65.4355 77 65.4355 77.024V77.264C65.4355 77.288 65.4475 77.3 65.4715 77.3H66.3315C66.3555 77.3 66.3675 77.288 66.3675 77.264ZM63.7795 76.66H64.3195C64.3355 76.66 64.3408 76.6493 64.3355 76.628V76.624C64.2875 76.496 64.2502 76.4013 64.2235 76.34C64.2155 76.3213 64.1995 76.312 64.1755 76.312H64.1035C64.0822 76.312 64.0648 76.32 64.0515 76.336C63.9662 76.4453 63.8768 76.5453 63.7835 76.636L63.7755 76.644C63.7728 76.6467 63.7715 76.6507 63.7715 76.656C63.7715 76.6587 63.7742 76.66 63.7795 76.66ZM64.7595 76.66H65.9795C65.9955 76.66 66.0008 76.6493 65.9955 76.628V76.624C65.9475 76.496 65.9102 76.4013 65.8835 76.34C65.8755 76.3213 65.8595 76.312 65.8355 76.312H65.7075C65.6835 76.312 65.6662 76.32 65.6555 76.336C65.6022 76.4 65.5275 76.4747 65.4315 76.56C65.3888 76.5973 65.3382 76.616 65.2795 76.616C65.2235 76.6133 65.1755 76.592 65.1355 76.552L65.0955 76.512C65.0688 76.4853 65.0555 76.4533 65.0555 76.416C65.0582 76.3787 65.0742 76.348 65.1035 76.324C65.1035 76.3187 65.1022 76.3147 65.0995 76.312H64.6875C64.6688 76.312 64.6622 76.3213 64.6675 76.34C64.6835 76.3773 64.7048 76.4333 64.7315 76.508C64.7475 76.5453 64.7488 76.5853 64.7355 76.628C64.7302 76.6493 64.7382 76.66 64.7595 76.66ZM64.1155 77.928H64.9595C64.9835 77.928 64.9955 77.9173 64.9955 77.896V77.656C64.9955 77.632 64.9835 77.62 64.9595 77.62H64.1755C64.1542 77.62 64.1408 77.6307 64.1355 77.652C64.1248 77.716 64.1102 77.7973 64.0915 77.896C64.0862 77.9173 64.0942 77.928 64.1155 77.928ZM67.5955 77.68C67.5368 77.68 67.4875 77.66 67.4475 77.62C67.4075 77.58 67.3875 77.5307 67.3875 77.472C67.3875 77.4133 67.4075 77.364 67.4475 77.324C67.4875 77.2813 67.5368 77.26 67.5955 77.26H70.7795C70.8382 77.26 70.8875 77.2813 70.9275 77.324C70.9675 77.364 70.9875 77.4133 70.9875 77.472C70.9875 77.5307 70.9675 77.58 70.9275 77.62C70.8875 77.66 70.8382 77.68 70.7795 77.68H67.5955ZM73.9995 79.328C73.9488 79.3253 73.9048 79.3053 73.8675 79.268C73.8328 79.2333 73.8142 79.1907 73.8115 79.14C73.8088 79.092 73.8235 79.0507 73.8555 79.016C73.8902 78.9813 73.9315 78.9653 73.9795 78.968C74.1315 78.976 74.2355 78.98 74.2915 78.98C74.3902 78.98 74.4488 78.9707 74.4675 78.952C74.4888 78.9307 74.4995 78.8693 74.4995 78.768V76.224C74.4995 76.2027 74.4875 76.192 74.4635 76.192H73.5155C73.4915 76.192 73.4795 76.2027 73.4795 76.224V76.448C73.4795 76.4693 73.4915 76.48 73.5155 76.48H74.1155C74.1582 76.48 74.1942 76.496 74.2235 76.528C74.2555 76.5573 74.2715 76.5933 74.2715 76.636C74.2715 76.6787 74.2555 76.716 74.2235 76.748C74.1942 76.7773 74.1582 76.792 74.1155 76.792H73.5155C73.4915 76.792 73.4795 76.8027 73.4795 76.824V77.108C73.4795 77.1293 73.4915 77.14 73.5155 77.14H74.1915C74.2342 77.14 74.2715 77.156 74.3035 77.188C74.3355 77.2173 74.3515 77.2547 74.3515 77.3C74.3515 77.3453 74.3355 77.384 74.3035 77.416C74.2715 77.4453 74.2342 77.46 74.1915 77.46H72.3595C72.3168 77.46 72.2795 77.4453 72.2475 77.416C72.2155 77.384 72.1995 77.3453 72.1995 77.3C72.1995 77.2547 72.2155 77.2173 72.2475 77.188C72.2795 77.156 72.3168 77.14 72.3595 77.14H73.0355C73.0595 77.14 73.0715 77.1293 73.0715 77.108V76.824C73.0715 76.8027 73.0595 76.792 73.0355 76.792H72.4355C72.3928 76.792 72.3555 76.7773 72.3235 76.748C72.2942 76.716 72.2795 76.6787 72.2795 76.636C72.2795 76.5933 72.2942 76.5573 72.3235 76.528C72.3555 76.496 72.3928 76.48 72.4355 76.48H73.0355C73.0595 76.48 73.0715 76.4693 73.0715 76.448V76.224C73.0715 76.2027 73.0595 76.192 73.0355 76.192H72.0835C72.0622 76.192 72.0515 76.2027 72.0515 76.224V77.488C72.0515 77.9067 72.0248 78.2453 71.9715 78.504C71.9208 78.76 71.8355 78.988 71.7155 79.188C71.6862 79.2387 71.6408 79.268 71.5795 79.276C71.5208 79.2867 71.4688 79.2733 71.4235 79.236C71.3755 79.1987 71.3462 79.148 71.3355 79.084C71.3275 79.0227 71.3395 78.9653 71.3715 78.912C71.4675 78.7387 71.5342 78.5347 71.5715 78.3C71.6115 78.0627 71.6315 77.736 71.6315 77.32V76.068C71.6315 76.0067 71.6528 75.9533 71.6955 75.908C71.7408 75.8627 71.7942 75.84 71.8555 75.84H74.6915C74.7528 75.84 74.8062 75.8627 74.8515 75.908C74.8968 75.9533 74.9195 76.0067 74.9195 76.068V78.76C74.9195 79.024 74.8888 79.1867 74.8275 79.248C74.7688 79.3093 74.6128 79.34 74.3595 79.34C74.2875 79.34 74.1675 79.336 73.9995 79.328ZM74.2195 78.592C74.2195 78.6533 74.1968 78.7067 74.1515 78.752C74.1062 78.7973 74.0528 78.82 73.9915 78.82H72.7475C72.7288 78.82 72.7195 78.8293 72.7195 78.848C72.7195 78.896 72.7022 78.9373 72.6675 78.972C72.6355 79.004 72.5955 79.02 72.5475 79.02H72.5195C72.4635 79.02 72.4155 79.0013 72.3755 78.964C72.3382 78.924 72.3195 78.876 72.3195 78.82V77.908C72.3195 77.8467 72.3422 77.7933 72.3875 77.748C72.4328 77.7027 72.4862 77.68 72.5475 77.68H73.9915C74.0528 77.68 74.1062 77.7027 74.1515 77.748C74.1968 77.7933 74.2195 77.8467 74.2195 77.908V78.592ZM73.8195 78.476V78.032C73.8195 78.0107 73.8075 78 73.7835 78H72.7515C72.7302 78 72.7195 78.0107 72.7195 78.032V78.476C72.7195 78.5 72.7302 78.512 72.7515 78.512H73.7835C73.8075 78.512 73.8195 78.5 73.8195 78.476Z" fill="black" fill-opacity="0.1"/>
<path d="M60 91.9999C40.8757 91.9999 24.0578 84 0 84V121H208V80.2173C200.649 84.4782 175.634 93.4783 153 90.5C107.438 84.5047 77.5422 91.9999 60 91.9999Z" fill="#33ADBF"/>
<path d="M4.656 94.776L4.164 92.304C4.15067 92.2453 4.16267 92.1933 4.2 92.148C4.24 92.1027 4.28933 92.08 4.348 92.08H4.58C4.644 92.08 4.70133 92.1013 4.752 92.144C4.80267 92.1867 4.832 92.24 4.84 92.304L5.112 94.304C5.112 94.3067 5.11333 94.308 5.116 94.308C5.11867 94.308 5.12 94.3067 5.12 94.304L5.368 92.304C5.376 92.24 5.404 92.1867 5.452 92.144C5.5 92.1013 5.556 92.08 5.62 92.08H5.996C6.06 92.08 6.116 92.1013 6.164 92.144C6.212 92.1867 6.24 92.24 6.248 92.304L6.496 94.304C6.496 94.3067 6.49733 94.308 6.5 94.308C6.50267 94.308 6.504 94.3067 6.504 94.304L6.776 92.304C6.784 92.24 6.81333 92.1867 6.864 92.144C6.91467 92.1013 6.972 92.08 7.036 92.08H7.252C7.31067 92.08 7.35867 92.1027 7.396 92.148C7.43333 92.1933 7.44667 92.2453 7.436 92.304L6.944 94.776C6.93067 94.84 6.89867 94.8933 6.848 94.936C6.79733 94.9787 6.73867 95 6.672 95H6.332C6.268 95 6.21067 94.9787 6.16 94.936C6.112 94.8933 6.084 94.84 6.076 94.776L5.804 92.776C5.804 92.7733 5.80267 92.772 5.8 92.772C5.79733 92.772 5.796 92.7733 5.796 92.776L5.524 94.776C5.516 94.84 5.48667 94.8933 5.436 94.936C5.388 94.9787 5.332 95 5.268 95H4.928C4.86133 95 4.80133 94.9787 4.748 94.936C4.69733 94.8933 4.66667 94.84 4.656 94.776ZM8.15841 95C8.09707 95 8.04374 94.9773 7.99841 94.932C7.95307 94.8867 7.93041 94.8333 7.93041 94.772V93.148C7.93041 93.0867 7.95307 93.0333 7.99841 92.988C8.04374 92.9427 8.09707 92.92 8.15841 92.92H8.38241C8.44374 92.92 8.49707 92.9427 8.54241 92.988C8.58774 93.0333 8.61041 93.0867 8.61041 93.148V94.772C8.61041 94.8333 8.58774 94.8867 8.54241 94.932C8.49707 94.9773 8.44374 95 8.38241 95H8.15841ZM8.15841 92.52C8.09707 92.52 8.04374 92.4973 7.99841 92.452C7.95307 92.4067 7.93041 92.3533 7.93041 92.292V92.228C7.93041 92.1667 7.95307 92.1133 7.99841 92.068C8.04374 92.0227 8.09707 92 8.15841 92H8.38241C8.44374 92 8.49707 92.0227 8.54241 92.068C8.58774 92.1133 8.61041 92.1667 8.61041 92.228V92.292C8.61041 92.3533 8.58774 92.4067 8.54241 92.452C8.49707 92.4973 8.44374 92.52 8.38241 92.52H8.15841ZM9.98066 94.2C9.69266 94.1467 9.48599 94.064 9.36066 93.952C9.23799 93.84 9.17666 93.692 9.17666 93.508C9.17666 93.3107 9.24999 93.1573 9.39666 93.048C9.54599 92.936 9.76999 92.88 10.0687 92.88C10.2447 92.88 10.4247 92.8947 10.6087 92.924C10.6727 92.9347 10.7247 92.9653 10.7647 93.016C10.8073 93.0667 10.8287 93.1253 10.8287 93.192V93.212C10.8287 93.268 10.806 93.3133 10.7607 93.348C10.718 93.3827 10.6687 93.3947 10.6127 93.384C10.4393 93.3493 10.2793 93.332 10.1327 93.332C10.0233 93.332 9.94599 93.3453 9.90066 93.372C9.85799 93.3987 9.83666 93.4387 9.83666 93.492C9.83666 93.5933 9.91666 93.66 10.0767 93.692C10.3807 93.7427 10.5927 93.8227 10.7127 93.932C10.8353 94.0413 10.8967 94.2 10.8967 94.408C10.8967 94.608 10.822 94.764 10.6727 94.876C10.5233 94.9853 10.306 95.04 10.0207 95.04C9.81266 95.04 9.61532 95.02 9.42866 94.98C9.36466 94.9667 9.31132 94.9333 9.26866 94.88C9.22866 94.824 9.20866 94.7613 9.20866 94.692V94.66C9.20866 94.604 9.23132 94.5613 9.27666 94.532C9.32199 94.5 9.37266 94.4907 9.42866 94.504C9.60199 94.5493 9.77266 94.572 9.94066 94.572C10.138 94.572 10.2367 94.5147 10.2367 94.4C10.2367 94.3467 10.218 94.3053 10.1807 94.276C10.146 94.2467 10.0793 94.2213 9.98066 94.2ZM11.6136 95C11.5522 95 11.4989 94.9773 11.4536 94.932C11.4082 94.8867 11.3856 94.8333 11.3856 94.772V92.228C11.3856 92.1667 11.4082 92.1133 11.4536 92.068C11.4989 92.0227 11.5522 92 11.6136 92H11.8056C11.8669 92 11.9202 92.0227 11.9656 92.068C12.0109 92.1133 12.0336 92.1667 12.0336 92.228V93.136C12.0336 93.1387 12.0349 93.14 12.0376 93.14C12.0402 93.14 12.0429 93.1387 12.0456 93.136C12.2322 92.9653 12.4322 92.88 12.6456 92.88C12.8909 92.88 13.0669 92.9507 13.1736 93.092C13.2802 93.2307 13.3336 93.48 13.3336 93.84V94.772C13.3336 94.8333 13.3109 94.8867 13.2656 94.932C13.2202 94.9773 13.1669 95 13.1056 95H12.9296C12.8682 95 12.8149 94.9773 12.7696 94.932C12.7242 94.8867 12.7016 94.8333 12.7016 94.772V93.92C12.7016 93.7067 12.6802 93.5653 12.6376 93.496C12.5976 93.4267 12.5202 93.392 12.4056 93.392C12.3149 93.392 12.2296 93.432 12.1496 93.512C12.0722 93.5893 12.0336 93.672 12.0336 93.76V94.772C12.0336 94.8333 12.0109 94.8867 11.9656 94.932C11.9202 94.9773 11.8669 95 11.8056 95H11.6136ZM14.5501 92.616V93.488C14.5501 93.5067 14.5621 93.5187 14.5861 93.524C14.6768 93.5347 14.7488 93.54 14.8021 93.54C14.9941 93.54 15.1421 93.496 15.2461 93.408C15.3528 93.3173 15.4061 93.192 15.4061 93.032C15.4061 92.7147 15.2048 92.556 14.8021 92.556C14.7355 92.556 14.6621 92.5627 14.5821 92.576C14.5608 92.5813 14.5501 92.5947 14.5501 92.616ZM14.1101 95C14.0488 95 13.9955 94.9773 13.9501 94.932C13.9048 94.8867 13.8821 94.8333 13.8821 94.772V92.328C13.8821 92.264 13.9035 92.2067 13.9461 92.156C13.9888 92.1053 14.0421 92.0773 14.1061 92.072C14.3328 92.0507 14.5515 92.04 14.7621 92.04C15.6155 92.04 16.0421 92.3573 16.0421 92.992C16.0421 93.336 15.9421 93.5973 15.7421 93.776C15.5448 93.952 15.2541 94.04 14.8701 94.04C14.7688 94.04 14.6741 94.036 14.5861 94.028C14.5621 94.028 14.5501 94.0387 14.5501 94.06V94.772C14.5501 94.8333 14.5275 94.8867 14.4821 94.932C14.4368 94.9773 14.3835 95 14.3221 95H14.1101ZM17.5344 93.48C17.4704 93.3813 17.3717 93.332 17.2384 93.332C17.1051 93.332 17.0051 93.3813 16.9384 93.48C16.8744 93.5787 16.8424 93.7387 16.8424 93.96C16.8424 94.1813 16.8744 94.3413 16.9384 94.44C17.0051 94.5387 17.1051 94.588 17.2384 94.588C17.3717 94.588 17.4704 94.5387 17.5344 94.44C17.6011 94.3413 17.6344 94.1813 17.6344 93.96C17.6344 93.7387 17.6011 93.5787 17.5344 93.48ZM18.0104 94.756C17.8264 94.9453 17.5691 95.04 17.2384 95.04C16.9077 95.04 16.6504 94.9453 16.4664 94.756C16.2824 94.5667 16.1904 94.3013 16.1904 93.96C16.1904 93.6187 16.2824 93.3533 16.4664 93.164C16.6504 92.9747 16.9077 92.88 17.2384 92.88C17.5691 92.88 17.8264 92.9747 18.0104 93.164C18.1944 93.3533 18.2864 93.6187 18.2864 93.96C18.2864 94.3013 18.1944 94.5667 18.0104 94.756ZM19.9172 93.48C19.8532 93.3813 19.7546 93.332 19.6212 93.332C19.4879 93.332 19.3879 93.3813 19.3212 93.48C19.2572 93.5787 19.2252 93.7387 19.2252 93.96C19.2252 94.1813 19.2572 94.3413 19.3212 94.44C19.3879 94.5387 19.4879 94.588 19.6212 94.588C19.7546 94.588 19.8532 94.5387 19.9172 94.44C19.9839 94.3413 20.0172 94.1813 20.0172 93.96C20.0172 93.7387 19.9839 93.5787 19.9172 93.48ZM20.3932 94.756C20.2092 94.9453 19.9519 95.04 19.6212 95.04C19.2906 95.04 19.0332 94.9453 18.8492 94.756C18.6652 94.5667 18.5732 94.3013 18.5732 93.96C18.5732 93.6187 18.6652 93.3533 18.8492 93.164C19.0332 92.9747 19.2906 92.88 19.6212 92.88C19.9519 92.88 20.2092 92.9747 20.3932 93.164C20.5772 93.3533 20.6692 93.6187 20.6692 93.96C20.6692 94.3013 20.5772 94.5667 20.3932 94.756ZM21.385 95C21.3236 95 21.2703 94.9773 21.225 94.932C21.1796 94.8867 21.157 94.8333 21.157 94.772V92.228C21.157 92.1667 21.1796 92.1133 21.225 92.068C21.2703 92.0227 21.3236 92 21.385 92H21.609C21.6703 92 21.7236 92.0227 21.769 92.068C21.8143 92.1133 21.837 92.1667 21.837 92.228V94.772C21.837 94.8333 21.8143 94.8867 21.769 94.932C21.7236 94.9773 21.6703 95 21.609 95H21.385Z" fill="white" fill-opacity="0.5"/>
<rect width="76" height="98" transform="translate(117)" fill="#FFC800"/>
<path d="M127.33 49C127.177 49 127.043 48.9433 126.93 48.83C126.817 48.7167 126.76 48.5833 126.76 48.43V42.27C126.76 42.1167 126.817 41.9833 126.93 41.87C127.043 41.7567 127.177 41.7 127.33 41.7H127.9C128.073 41.7 128.23 41.7467 128.37 41.84C128.51 41.9333 128.613 42.06 128.68 42.22L130.23 45.99C130.23 45.9967 130.233 46 130.24 46C130.247 46 130.25 45.9967 130.25 45.99L131.8 42.22C131.867 42.06 131.97 41.9333 132.11 41.84C132.25 41.7467 132.407 41.7 132.58 41.7H133.19C133.343 41.7 133.477 41.7567 133.59 41.87C133.703 41.9833 133.76 42.1167 133.76 42.27V48.43C133.76 48.5833 133.703 48.7167 133.59 48.83C133.477 48.9433 133.343 49 133.19 49H132.71C132.557 49 132.423 48.9433 132.31 48.83C132.203 48.7167 132.15 48.5833 132.15 48.43V44.54C132.15 44.5333 132.147 44.53 132.14 44.53C132.127 44.53 132.12 44.5333 132.12 44.54L131.16 46.81C131.093 46.97 130.987 47.0967 130.84 47.19C130.7 47.2833 130.543 47.33 130.37 47.33H130.11C129.937 47.33 129.777 47.2833 129.63 47.19C129.49 47.0967 129.387 46.97 129.32 46.81L128.36 44.54C128.36 44.5333 128.353 44.53 128.34 44.53C128.333 44.53 128.33 44.5333 128.33 44.54V48.43C128.33 48.5833 128.273 48.7167 128.16 48.83C128.053 48.9433 127.923 49 127.77 49H127.33ZM136.566 48.92L134.876 44.33C134.822 44.2033 134.836 44.0833 134.916 43.97C134.996 43.8567 135.106 43.8 135.246 43.8H135.876C136.036 43.8 136.182 43.8533 136.316 43.96C136.449 44.06 136.536 44.19 136.576 44.35L137.336 47.46C137.336 47.4667 137.339 47.47 137.346 47.47C137.352 47.47 137.356 47.4667 137.356 47.46L138.266 44.34C138.306 44.18 138.392 44.05 138.526 43.95C138.666 43.85 138.822 43.8 138.996 43.8H139.546C139.679 43.8 139.786 43.8567 139.866 43.97C139.946 44.0833 139.962 44.2033 139.916 44.33L137.556 50.67C137.496 50.83 137.396 50.9567 137.256 51.05C137.116 51.15 136.962 51.2 136.796 51.2H136.246C136.106 51.2 135.999 51.1433 135.926 51.03C135.852 50.9233 135.842 50.8067 135.896 50.68L136.566 49.08C136.572 49.0533 136.576 49.0267 136.576 49C136.576 48.9733 136.572 48.9467 136.566 48.92ZM145.461 43.04V45.22C145.461 45.2667 145.491 45.2967 145.551 45.31C145.778 45.3367 145.958 45.35 146.091 45.35C146.571 45.35 146.941 45.24 147.201 45.02C147.468 44.7933 147.601 44.48 147.601 44.08C147.601 43.2867 147.098 42.89 146.091 42.89C145.925 42.89 145.741 42.9067 145.541 42.94C145.488 42.9533 145.461 42.9867 145.461 43.04ZM144.361 49C144.208 49 144.075 48.9433 143.961 48.83C143.848 48.7167 143.791 48.5833 143.791 48.43V42.32C143.791 42.16 143.845 42.0167 143.951 41.89C144.058 41.7633 144.191 41.6933 144.351 41.68C144.918 41.6267 145.465 41.6 145.991 41.6C148.125 41.6 149.191 42.3933 149.191 43.98C149.191 44.84 148.941 45.4933 148.441 45.94C147.948 46.38 147.221 46.6 146.261 46.6C146.008 46.6 145.771 46.59 145.551 46.57C145.491 46.57 145.461 46.5967 145.461 46.65V48.43C145.461 48.5833 145.405 48.7167 145.291 48.83C145.178 48.9433 145.045 49 144.891 49H144.361ZM150.57 49C150.416 49 150.283 48.9433 150.17 48.83C150.063 48.7167 150.01 48.5833 150.01 48.43V44.37C150.01 44.2167 150.063 44.0833 150.17 43.97C150.283 43.8567 150.416 43.8 150.57 43.8H151.06C151.213 43.8 151.343 43.8567 151.45 43.97C151.563 44.0833 151.62 44.2167 151.62 44.37V44.79C151.62 44.7967 151.623 44.8 151.63 44.8C151.643 44.8 151.65 44.7967 151.65 44.79C152.063 44.2367 152.64 43.9133 153.38 43.82C153.533 43.8 153.663 43.8467 153.77 43.96C153.883 44.0733 153.94 44.21 153.94 44.37V44.45C153.94 44.6033 153.883 44.7367 153.77 44.85C153.663 44.9633 153.53 45.0267 153.37 45.04C152.83 45.1 152.41 45.2867 152.11 45.6C151.816 45.9067 151.67 46.3067 151.67 46.8V48.43C151.67 48.5833 151.613 48.7167 151.5 48.83C151.393 48.9433 151.263 49 151.11 49H150.57ZM157.873 45.2C157.713 44.9533 157.466 44.83 157.133 44.83C156.8 44.83 156.55 44.9533 156.383 45.2C156.223 45.4467 156.143 45.8467 156.143 46.4C156.143 46.9533 156.223 47.3533 156.383 47.6C156.55 47.8467 156.8 47.97 157.133 47.97C157.466 47.97 157.713 47.8467 157.873 47.6C158.04 47.3533 158.123 46.9533 158.123 46.4C158.123 45.8467 158.04 45.4467 157.873 45.2ZM159.063 48.39C158.603 48.8633 157.96 49.1 157.133 49.1C156.306 49.1 155.663 48.8633 155.203 48.39C154.743 47.9167 154.513 47.2533 154.513 46.4C154.513 45.5467 154.743 44.8833 155.203 44.41C155.663 43.9367 156.306 43.7 157.133 43.7C157.96 43.7 158.603 43.9367 159.063 44.41C159.523 44.8833 159.753 45.5467 159.753 46.4C159.753 47.2533 159.523 47.9167 159.063 48.39ZM163.1 44.9C162.433 44.9 162.1 45.4 162.1 46.4C162.1 46.9067 162.19 47.2833 162.37 47.53C162.55 47.7767 162.793 47.9 163.1 47.9C163.367 47.9 163.6 47.81 163.8 47.63C164 47.45 164.1 47.2467 164.1 47.02V45.78C164.1 45.5533 164 45.35 163.8 45.17C163.6 44.99 163.367 44.9 163.1 44.9ZM162.55 49.1C161.957 49.1 161.47 48.8633 161.09 48.39C160.71 47.91 160.52 47.2467 160.52 46.4C160.52 45.5333 160.703 44.8667 161.07 44.4C161.437 43.9333 161.93 43.7 162.55 43.7C163.097 43.7 163.593 43.9033 164.04 44.31C164.047 44.3167 164.053 44.32 164.06 44.32C164.067 44.32 164.07 44.3167 164.07 44.31V42.07C164.07 41.9167 164.123 41.7833 164.23 41.67C164.343 41.5567 164.477 41.5 164.63 41.5H165.12C165.273 41.5 165.403 41.5567 165.51 41.67C165.623 41.7833 165.68 41.9167 165.68 42.07V48.43C165.68 48.5833 165.623 48.7167 165.51 48.83C165.403 48.9433 165.273 49 165.12 49H164.74C164.58 49 164.443 48.9467 164.33 48.84C164.223 48.7267 164.167 48.59 164.16 48.43V48.35C164.16 48.3433 164.157 48.34 164.15 48.34L164.13 48.36C163.71 48.8533 163.183 49.1 162.55 49.1ZM168.671 49.1C168.084 49.1 167.657 48.9367 167.391 48.61C167.131 48.2833 167.001 47.7233 167.001 46.93V44.37C167.001 44.2167 167.057 44.0833 167.171 43.97C167.284 43.8567 167.417 43.8 167.571 43.8H168.011C168.164 43.8 168.297 43.8567 168.411 43.97C168.524 44.0833 168.581 44.2167 168.581 44.37V46.82C168.581 47.2067 168.631 47.4733 168.731 47.62C168.837 47.76 169.017 47.83 169.271 47.83C169.504 47.83 169.717 47.7367 169.911 47.55C170.104 47.3567 170.201 47.15 170.201 46.93V44.37C170.201 44.2167 170.257 44.0833 170.371 43.97C170.484 43.8567 170.617 43.8 170.771 43.8H171.251C171.404 43.8 171.537 43.8567 171.651 43.97C171.764 44.0833 171.821 44.2167 171.821 44.37V48.43C171.821 48.5833 171.764 48.7167 171.651 48.83C171.537 48.9433 171.404 49 171.251 49H170.841C170.681 49 170.544 48.9467 170.431 48.84C170.324 48.7267 170.267 48.59 170.261 48.43V48.35C170.261 48.3433 170.257 48.34 170.251 48.34L170.231 48.36C169.797 48.8533 169.277 49.1 168.671 49.1ZM175.464 49.1C174.604 49.1 173.944 48.8733 173.484 48.42C173.024 47.9667 172.794 47.2933 172.794 46.4C172.794 45.5267 173.014 44.86 173.454 44.4C173.901 43.9333 174.538 43.7 175.364 43.7C175.638 43.7 176.001 43.73 176.454 43.79C176.621 43.8167 176.754 43.8933 176.854 44.02C176.961 44.14 177.014 44.2833 177.014 44.45V44.55C177.014 44.69 176.958 44.8033 176.844 44.89C176.731 44.9767 176.604 45.0067 176.464 44.98C176.191 44.9333 175.908 44.91 175.614 44.91C175.234 44.91 174.951 45.03 174.764 45.27C174.584 45.5033 174.494 45.88 174.494 46.4C174.494 46.9333 174.591 47.3167 174.784 47.55C174.984 47.7767 175.294 47.89 175.714 47.89C176.028 47.89 176.308 47.8633 176.554 47.81C176.694 47.7767 176.818 47.8033 176.924 47.89C177.038 47.9767 177.094 48.09 177.094 48.23V48.33C177.094 48.4967 177.041 48.6467 176.934 48.78C176.828 48.9067 176.694 48.9833 176.534 49.01C176.168 49.07 175.811 49.1 175.464 49.1ZM178.689 45.13C178.536 45.13 178.402 45.0767 178.289 44.97C178.176 44.8567 178.119 44.7233 178.119 44.57C178.119 44.4167 178.176 44.2833 178.289 44.17C178.402 44.0567 178.536 44 178.689 44H179.089C179.142 44 179.169 43.97 179.169 43.91V42.67C179.169 42.5167 179.226 42.3833 179.339 42.27C179.452 42.1567 179.586 42.1 179.739 42.1H180.219C180.372 42.1 180.506 42.1567 180.619 42.27C180.732 42.3833 180.789 42.5167 180.789 42.67V43.91C180.789 43.97 180.819 44 180.879 44H181.859C182.012 44 182.142 44.0567 182.249 44.17C182.362 44.2833 182.419 44.4167 182.419 44.57C182.419 44.7233 182.362 44.8567 182.249 44.97C182.142 45.0767 182.012 45.13 181.859 45.13H180.879C180.819 45.13 180.789 45.16 180.789 45.22V46.93C180.789 47.35 180.826 47.6167 180.899 47.73C180.979 47.8433 181.152 47.9 181.419 47.9C181.559 47.9 181.669 47.8933 181.749 47.88C181.896 47.86 182.026 47.8933 182.139 47.98C182.252 48.0667 182.309 48.18 182.309 48.32V48.4C182.309 48.5667 182.256 48.7133 182.149 48.84C182.042 48.9667 181.906 49.04 181.739 49.06C181.532 49.0867 181.292 49.1 181.019 49.1C180.339 49.1 179.859 48.9567 179.579 48.67C179.306 48.3767 179.169 47.8533 179.169 47.1V45.22C179.169 45.16 179.142 45.13 179.089 45.13H178.689Z" fill="white"/>
<path d="M139.624 59.2C139.595 59.232 139.559 59.248 139.516 59.248C139.473 59.248 139.436 59.232 139.404 59.2C139.375 59.1707 139.36 59.1333 139.36 59.088V56.38C139.36 56.3187 139.383 56.2653 139.428 56.22C139.473 56.1747 139.527 56.152 139.588 56.152H140.804C140.828 56.152 140.84 56.1413 140.84 56.12V55.864C140.84 55.8213 140.855 55.7853 140.884 55.756C140.913 55.724 140.951 55.708 140.996 55.708C141.041 55.708 141.079 55.724 141.108 55.756C141.137 55.7853 141.152 55.8213 141.152 55.864V56.12C141.152 56.1413 141.164 56.152 141.188 56.152H142.412C142.473 56.152 142.527 56.1747 142.572 56.22C142.617 56.2653 142.64 56.3187 142.64 56.38V58.728C142.64 58.9573 142.612 59.0987 142.556 59.152C142.503 59.2053 142.364 59.232 142.14 59.232C141.983 59.232 141.819 59.228 141.648 59.22C141.611 59.2173 141.579 59.2013 141.552 59.172C141.525 59.1453 141.511 59.1133 141.508 59.076C141.505 59.0387 141.517 59.0067 141.544 58.98C141.571 58.9533 141.603 58.9413 141.64 58.944C141.701 58.9467 141.767 58.9493 141.836 58.952C141.908 58.9547 141.963 58.9573 142 58.96C142.037 58.96 142.067 58.96 142.088 58.96C142.205 58.96 142.275 58.9507 142.296 58.932C142.317 58.9107 142.328 58.8427 142.328 58.728V56.46C142.328 56.4387 142.316 56.428 142.292 56.428H141.176C141.152 56.428 141.14 56.4387 141.14 56.46C141.124 56.6093 141.093 56.7573 141.048 56.904C141.04 56.9227 141.048 56.94 141.072 56.956C141.472 57.2067 141.832 57.5187 142.152 57.892C142.179 57.924 142.189 57.96 142.184 58C142.179 58.04 142.159 58.072 142.124 58.096C142.087 58.12 142.047 58.1293 142.004 58.124C141.964 58.116 141.929 58.096 141.9 58.064C141.607 57.7147 141.292 57.432 140.956 57.216C140.937 57.208 140.923 57.2147 140.912 57.236C140.736 57.5667 140.451 57.8533 140.056 58.096C140.019 58.12 139.979 58.1267 139.936 58.116C139.893 58.1027 139.86 58.0773 139.836 58.04C139.815 58.0027 139.808 57.964 139.816 57.924C139.827 57.884 139.851 57.8533 139.888 57.832C140.176 57.664 140.395 57.4707 140.544 57.252C140.696 57.0307 140.789 56.768 140.824 56.464C140.829 56.44 140.82 56.428 140.796 56.428H139.708C139.684 56.428 139.672 56.4387 139.672 56.46V59.088C139.672 59.1333 139.656 59.1707 139.624 59.2ZM144.944 58.632L145.132 58.516C145.201 58.58 145.271 58.6507 145.34 58.728C145.412 58.8053 145.479 58.8813 145.54 58.956C145.604 59.0307 145.655 59.0973 145.692 59.156L145.496 59.292C145.459 59.2333 145.409 59.1653 145.348 59.088C145.289 59.0107 145.224 58.932 145.152 58.852C145.083 58.772 145.013 58.6987 144.944 58.632ZM144.248 55.872H145.596V58.372H145.352V56.104H144.484V58.384H144.248V55.872ZM146.468 55.692H146.716V58.972C146.716 59.0547 146.704 59.1173 146.68 59.16C146.659 59.2027 146.624 59.2347 146.576 59.256C146.523 59.2773 146.452 59.2907 146.364 59.296C146.276 59.304 146.161 59.3067 146.02 59.304C146.015 59.272 146.003 59.2307 145.984 59.18C145.968 59.132 145.951 59.0893 145.932 59.052C146.039 59.0547 146.133 59.056 146.216 59.056C146.301 59.056 146.359 59.0547 146.388 59.052C146.441 59.052 146.468 59.0253 146.468 58.972V55.692ZM145.92 56H146.16V58.396H145.92V56ZM144.784 56.388H145.016V57.808C145.016 57.9413 145.005 58.0773 144.984 58.216C144.965 58.3547 144.927 58.4907 144.868 58.624C144.812 58.7573 144.728 58.8827 144.616 59C144.507 59.1173 144.363 59.2213 144.184 59.312C144.176 59.296 144.163 59.276 144.144 59.252C144.125 59.228 144.107 59.204 144.088 59.18C144.069 59.156 144.052 59.1387 144.036 59.128C144.201 59.0427 144.333 58.9493 144.432 58.848C144.533 58.744 144.609 58.6347 144.66 58.52C144.711 58.4053 144.744 58.288 144.76 58.168C144.776 58.0453 144.784 57.924 144.784 57.804V56.388ZM143.324 55.896L143.504 55.684C143.576 55.7213 143.653 55.7653 143.736 55.816C143.819 55.864 143.897 55.9133 143.972 55.964C144.047 56.012 144.108 56.056 144.156 56.096L143.972 56.34C143.927 56.2973 143.867 56.2493 143.792 56.196C143.72 56.1427 143.643 56.0907 143.56 56.04C143.477 55.9867 143.399 55.9387 143.324 55.896ZM143.152 56.976L143.324 56.76C143.399 56.7973 143.476 56.84 143.556 56.888C143.639 56.936 143.719 56.984 143.796 57.032C143.873 57.0773 143.937 57.12 143.988 57.16L143.808 57.4C143.763 57.36 143.701 57.3147 143.624 57.264C143.549 57.2133 143.471 57.1627 143.388 57.112C143.305 57.0613 143.227 57.016 143.152 56.976ZM143.232 59.108C143.288 59.004 143.347 58.8813 143.408 58.74C143.472 58.5987 143.536 58.4493 143.6 58.292C143.664 58.132 143.723 57.9787 143.776 57.832L144.016 57.988C143.968 58.1267 143.915 58.272 143.856 58.424C143.8 58.5733 143.741 58.7213 143.68 58.868C143.619 59.012 143.56 59.1453 143.504 59.268L143.232 59.108ZM147.616 58.264C147.589 58.2933 147.555 58.308 147.512 58.308C147.469 58.308 147.433 58.2933 147.404 58.264C147.375 58.2347 147.36 58.1987 147.36 58.156V56.64C147.36 56.5787 147.383 56.5253 147.428 56.48C147.473 56.4347 147.527 56.412 147.588 56.412H148.808C148.829 56.412 148.84 56.4013 148.84 56.38V55.892C148.84 55.8467 148.856 55.8093 148.888 55.78C148.92 55.748 148.957 55.732 149 55.732C149.043 55.732 149.08 55.748 149.112 55.78C149.144 55.8093 149.16 55.8467 149.16 55.892V56.38C149.16 56.4013 149.172 56.412 149.196 56.412H150.412C150.473 56.412 150.527 56.4347 150.572 56.48C150.617 56.5253 150.64 56.5787 150.64 56.64V58.156C150.64 58.1987 150.625 58.2347 150.596 58.264C150.569 58.2933 150.535 58.308 150.492 58.308C150.449 58.308 150.413 58.2933 150.384 58.264C150.355 58.2347 150.34 58.1987 150.34 58.156V58.088C150.34 58.064 150.329 58.052 150.308 58.052H149.196C149.172 58.052 149.16 58.064 149.16 58.088V59.228C149.16 59.2733 149.144 59.3107 149.112 59.34C149.08 59.372 149.043 59.388 149 59.388C148.957 59.388 148.92 59.372 148.888 59.34C148.856 59.3107 148.84 59.2733 148.84 59.228V58.088C148.84 58.064 148.829 58.052 148.808 58.052H147.692C147.671 58.052 147.66 58.064 147.66 58.088V58.156C147.66 58.1987 147.645 58.2347 147.616 58.264ZM150.304 56.688H149.196C149.172 56.688 149.16 56.6987 149.16 56.72V57.752C149.16 57.776 149.172 57.788 149.196 57.788H150.304C150.328 57.788 150.34 57.776 150.34 57.752V56.72C150.34 56.6987 150.328 56.688 150.304 56.688ZM147.66 56.72V57.752C147.66 57.776 147.672 57.788 147.696 57.788H148.808C148.829 57.788 148.84 57.776 148.84 57.752V56.72C148.84 56.6987 148.829 56.688 148.808 56.688H147.696C147.672 56.688 147.66 56.6987 147.66 56.72ZM151.604 59.44C151.567 59.44 151.537 59.4253 151.516 59.396C151.495 59.3667 151.489 59.3347 151.5 59.3L151.692 58.644C151.708 58.588 151.74 58.5427 151.788 58.508C151.839 58.4707 151.893 58.452 151.952 58.452C152 58.452 152.037 58.472 152.064 58.512C152.091 58.552 152.095 58.5947 152.076 58.64L151.808 59.304C151.773 59.3947 151.705 59.44 151.604 59.44ZM155.2 56.1H156.516V56.372H155.2V56.1ZM156.432 56.1H156.48L156.532 56.088L156.716 56.148C156.655 56.6173 156.557 57.04 156.424 57.416C156.291 57.7893 156.128 58.1133 155.936 58.388C155.747 58.6627 155.536 58.884 155.304 59.052C155.283 59.0173 155.251 58.9773 155.208 58.932C155.168 58.884 155.132 58.848 155.1 58.824C155.263 58.7173 155.415 58.5773 155.556 58.404C155.7 58.2307 155.829 58.0293 155.944 57.8C156.061 57.5707 156.161 57.3187 156.244 57.044C156.329 56.7693 156.392 56.4773 156.432 56.168V56.1ZM155.212 56.8L155.424 56.636C155.539 56.7827 155.656 56.94 155.776 57.108C155.896 57.2733 156.012 57.44 156.124 57.608C156.236 57.776 156.336 57.9373 156.424 58.092C156.515 58.2467 156.587 58.3853 156.64 58.508L156.4 58.708C156.347 58.58 156.276 58.4373 156.188 58.28C156.1 58.1227 156.003 57.9587 155.896 57.788C155.789 57.6147 155.676 57.444 155.556 57.276C155.439 57.108 155.324 56.9493 155.212 56.8ZM157.196 56.244H158.556V56.52H157.196V56.244ZM157.188 55.644L157.476 55.684C157.428 56.0067 157.361 56.3107 157.276 56.596C157.191 56.8787 157.083 57.1187 156.952 57.316C156.936 57.3 156.913 57.2813 156.884 57.26C156.855 57.236 156.824 57.2147 156.792 57.196C156.76 57.1747 156.732 57.1573 156.708 57.144C156.793 57.024 156.867 56.8853 156.928 56.728C156.992 56.568 157.044 56.396 157.084 56.212C157.127 56.028 157.161 55.8387 157.188 55.644ZM158.492 56.244H158.54L158.588 56.236L158.788 56.292C158.753 56.444 158.711 56.6027 158.66 56.768C158.612 56.9307 158.564 57.0667 158.516 57.176L158.276 57.1C158.303 57.0307 158.329 56.9507 158.356 56.86C158.383 56.7693 158.408 56.6747 158.432 56.576C158.456 56.4773 158.476 56.384 158.492 56.296V56.244ZM157.78 57.164C157.828 57.4573 157.896 57.7307 157.984 57.984C158.075 58.2347 158.193 58.4533 158.34 58.64C158.487 58.8267 158.668 58.9693 158.884 59.068C158.86 59.0867 158.835 59.1107 158.808 59.14C158.784 59.1693 158.76 59.2 158.736 59.232C158.715 59.2667 158.696 59.296 158.68 59.32C158.453 59.2 158.264 59.0387 158.112 58.836C157.96 58.6307 157.837 58.3907 157.744 58.116C157.653 57.8387 157.581 57.5333 157.528 57.2L157.78 57.164ZM157.528 56.76H157.812V57.044C157.812 57.212 157.8 57.3933 157.776 57.588C157.755 57.78 157.705 57.9773 157.628 58.18C157.553 58.3827 157.437 58.5827 157.28 58.78C157.123 58.9773 156.909 59.16 156.64 59.328C156.627 59.3067 156.607 59.2827 156.58 59.256C156.556 59.2293 156.531 59.204 156.504 59.18C156.477 59.156 156.452 59.136 156.428 59.12C156.684 58.9627 156.885 58.7947 157.032 58.616C157.181 58.4347 157.291 58.252 157.36 58.068C157.432 57.8813 157.477 57.7013 157.496 57.528C157.517 57.352 157.528 57.1893 157.528 57.04V56.76ZM159.6 55.984C159.781 56.1707 159.937 56.3373 160.068 56.484C160.095 56.5133 160.107 56.5467 160.104 56.584C160.101 56.6213 160.085 56.6533 160.056 56.68C160.027 56.7067 159.993 56.7187 159.956 56.716C159.919 56.7107 159.887 56.6933 159.86 56.664C159.735 56.5227 159.577 56.3573 159.388 56.168C159.361 56.1413 159.348 56.1093 159.348 56.072C159.351 56.032 159.365 55.9987 159.392 55.972C159.421 55.9453 159.456 55.9333 159.496 55.936C159.536 55.9387 159.571 55.9547 159.6 55.984ZM159.348 57.54C159.311 57.54 159.279 57.5267 159.252 57.5C159.225 57.4733 159.212 57.4427 159.212 57.408C159.212 57.3707 159.225 57.3387 159.252 57.312C159.281 57.2853 159.313 57.272 159.348 57.272H159.828C159.889 57.272 159.941 57.2947 159.984 57.34C160.029 57.3853 160.052 57.4387 160.052 57.5V58.48C160.052 58.5013 160.059 58.5227 160.072 58.544C160.176 58.72 160.327 58.8387 160.524 58.9C160.724 58.9613 161.069 58.992 161.56 58.992H162.632C162.667 58.992 162.697 59.0053 162.724 59.032C162.751 59.0587 162.763 59.0907 162.76 59.128C162.757 59.1653 162.743 59.196 162.716 59.22C162.689 59.2467 162.657 59.26 162.62 59.26H161.548C161.084 59.26 160.732 59.228 160.492 59.164C160.252 59.1027 160.071 58.992 159.948 58.832C159.935 58.816 159.921 58.8147 159.908 58.828C159.769 58.9747 159.612 59.1133 159.436 59.244C159.404 59.268 159.369 59.2747 159.332 59.264C159.295 59.256 159.265 59.2347 159.244 59.2C159.223 59.1653 159.216 59.1267 159.224 59.084C159.235 59.044 159.257 59.012 159.292 58.988C159.473 58.8547 159.62 58.728 159.732 58.608C159.745 58.5947 159.752 58.576 159.752 58.552V57.576C159.752 57.552 159.741 57.54 159.72 57.54H159.348ZM162.232 58.232C162.307 58.232 162.349 58.2227 162.36 58.204C162.373 58.1853 162.38 58.1213 162.38 58.012V56.288C162.38 56.264 162.368 56.252 162.344 56.252H161.728C161.704 56.252 161.692 56.264 161.692 56.288V58.712C161.692 58.7547 161.677 58.7907 161.648 58.82C161.621 58.8467 161.587 58.86 161.544 58.86C161.501 58.86 161.465 58.8467 161.436 58.82C161.407 58.7907 161.392 58.7547 161.392 58.712V56.124C161.392 56.1053 161.381 56.0987 161.36 56.104C161.139 56.1733 160.915 56.232 160.688 56.28C160.664 56.2853 160.652 56.3 160.652 56.324V58.024C160.652 58.0453 160.663 58.0533 160.684 58.048C160.881 57.9707 161.039 57.9053 161.156 57.852C161.185 57.8387 161.213 57.84 161.24 57.856C161.269 57.872 161.285 57.8973 161.288 57.932C161.293 58.0253 161.253 58.092 161.168 58.132C160.909 58.2493 160.625 58.3573 160.316 58.456C160.281 58.4667 160.248 58.4627 160.216 58.444C160.187 58.4253 160.167 58.3987 160.156 58.364C160.145 58.3293 160.149 58.296 160.168 58.264C160.187 58.232 160.215 58.2093 160.252 58.196C160.26 58.1933 160.273 58.1893 160.292 58.184C160.311 58.1787 160.324 58.1747 160.332 58.172C160.351 58.1667 160.36 58.152 160.36 58.128V56.292C160.36 56.228 160.381 56.1707 160.424 56.12C160.467 56.0693 160.52 56.0373 160.584 56.024C160.816 55.9733 161.059 55.908 161.312 55.828C161.363 55.812 161.412 55.8173 161.46 55.844C161.508 55.868 161.539 55.9067 161.552 55.96C161.557 55.9787 161.569 55.988 161.588 55.988H162.448C162.509 55.988 162.561 56.0107 162.604 56.056C162.649 56.0987 162.672 56.1507 162.672 56.212V58.008C162.672 58.232 162.653 58.3707 162.616 58.424C162.581 58.4747 162.485 58.5 162.328 58.5C162.299 58.5 162.196 58.4973 162.02 58.492C161.98 58.4893 161.945 58.4747 161.916 58.448C161.887 58.4213 161.869 58.3893 161.864 58.352C161.859 58.3173 161.867 58.2867 161.888 58.26C161.912 58.2333 161.941 58.2213 161.976 58.224C162.131 58.2293 162.216 58.232 162.232 58.232ZM163.48 55.9L163.68 55.716C163.749 55.772 163.821 55.8347 163.896 55.904C163.971 55.9733 164.041 56.0413 164.108 56.108C164.175 56.1747 164.228 56.2347 164.268 56.288L164.06 56.496C164.02 56.44 163.967 56.3773 163.9 56.308C163.836 56.2387 163.767 56.168 163.692 56.096C163.62 56.024 163.549 55.9587 163.48 55.9ZM163.716 59.216L163.668 58.948L163.76 58.824L164.484 58.356C164.495 58.396 164.507 58.4413 164.52 58.492C164.536 58.54 164.552 58.58 164.568 58.612C164.395 58.7267 164.256 58.82 164.152 58.892C164.048 58.964 163.967 59.02 163.908 59.06C163.849 59.1 163.807 59.132 163.78 59.156C163.753 59.18 163.732 59.2 163.716 59.216ZM163.2 56.896H163.912V57.184H163.2V56.896ZM164.384 56.472H166.836V56.76H164.384V56.472ZM164.512 57.344H165.584V57.624H164.512V57.344ZM164.932 57.5H165.208V58.72L164.932 58.752V57.5ZM164.44 58.756C164.595 58.716 164.781 58.6667 165 58.608C165.221 58.5467 165.447 58.484 165.676 58.42L165.716 58.688C165.505 58.7493 165.296 58.8107 165.088 58.872C164.88 58.9333 164.692 58.9893 164.524 59.04L164.44 58.756ZM166.108 55.816L166.316 55.688C166.399 55.7733 166.483 55.868 166.568 55.972C166.653 56.076 166.717 56.168 166.76 56.248L166.54 56.396C166.5 56.316 166.439 56.2213 166.356 56.112C166.273 56.0027 166.191 55.904 166.108 55.816ZM165.684 55.66H165.988C165.988 56.012 165.996 56.3493 166.012 56.672C166.028 56.992 166.049 57.288 166.076 57.56C166.103 57.8293 166.135 58.0653 166.172 58.268C166.212 58.4707 166.257 58.628 166.308 58.74C166.361 58.852 166.42 58.9107 166.484 58.916C166.519 58.916 166.548 58.8627 166.572 58.756C166.596 58.6467 166.615 58.4947 166.628 58.3C166.647 58.3187 166.671 58.34 166.7 58.364C166.732 58.3853 166.763 58.4053 166.792 58.424C166.824 58.44 166.849 58.4533 166.868 58.464C166.847 58.632 166.821 58.772 166.792 58.884C166.765 58.9933 166.735 59.0787 166.7 59.14C166.665 59.2013 166.628 59.244 166.588 59.268C166.551 59.2947 166.513 59.308 166.476 59.308C166.356 59.3027 166.252 59.24 166.164 59.12C166.079 59.0027 166.007 58.836 165.948 58.62C165.889 58.4013 165.841 58.1427 165.804 57.844C165.769 57.5427 165.743 57.208 165.724 56.84C165.705 56.472 165.692 56.0787 165.684 55.66ZM163.716 59.216C163.705 59.192 163.691 59.1627 163.672 59.128C163.656 59.096 163.639 59.064 163.62 59.032C163.601 59 163.583 58.9747 163.564 58.956C163.601 58.932 163.643 58.892 163.688 58.836C163.733 58.78 163.756 58.7093 163.756 58.624V56.896H164.04V58.884C164.04 58.884 164.028 58.892 164.004 58.908C163.983 58.924 163.956 58.9453 163.924 58.972C163.892 58.996 163.86 59.0227 163.828 59.052C163.796 59.0813 163.769 59.1093 163.748 59.136C163.727 59.1653 163.716 59.192 163.716 59.216ZM167.28 59.244C167.245 59.2173 167.224 59.18 167.216 59.132C167.208 59.0867 167.216 59.0453 167.24 59.008C167.365 58.8053 167.453 58.5787 167.504 58.328C167.557 58.0773 167.584 57.7507 167.584 57.348V56.092C167.584 56.0307 167.607 55.9787 167.652 55.936C167.697 55.8907 167.751 55.868 167.812 55.868H170.392C170.453 55.868 170.507 55.8907 170.552 55.936C170.597 55.9787 170.62 56.0307 170.62 56.092V58.8C170.62 59.0293 170.593 59.1707 170.54 59.224C170.487 59.28 170.348 59.308 170.124 59.308C170.119 59.308 169.975 59.3027 169.692 59.292C169.657 59.2893 169.627 59.2747 169.6 59.248C169.576 59.224 169.563 59.1933 169.56 59.156C169.557 59.1213 169.568 59.0907 169.592 59.064C169.619 59.04 169.651 59.0293 169.688 59.032C169.739 59.0347 169.795 59.0373 169.856 59.04C169.917 59.0427 169.964 59.044 169.996 59.044C170.031 59.0467 170.059 59.048 170.08 59.048C170.192 59.048 170.259 59.036 170.28 59.012C170.301 58.9907 170.312 58.924 170.312 58.812V58.116C170.312 58.092 170.3 58.08 170.276 58.08H169.24C169.216 58.08 169.204 58.092 169.204 58.116V59.092C169.204 59.1347 169.189 59.1693 169.16 59.196C169.133 59.2253 169.099 59.24 169.056 59.24C169.013 59.24 168.977 59.2253 168.948 59.196C168.919 59.1693 168.904 59.1347 168.904 59.092V58.116C168.904 58.092 168.893 58.08 168.872 58.08H167.9C167.879 58.08 167.865 58.0907 167.86 58.112C167.812 58.5467 167.692 58.912 167.5 59.208C167.476 59.2453 167.441 59.268 167.396 59.276C167.353 59.284 167.315 59.2733 167.28 59.244ZM169.204 56.16V56.792C169.204 56.816 169.216 56.828 169.24 56.828H170.276C170.3 56.828 170.312 56.816 170.312 56.792V56.16C170.312 56.1387 170.3 56.128 170.276 56.128H169.24C169.216 56.128 169.204 56.1387 169.204 56.16ZM169.204 57.108V57.8C169.204 57.8213 169.216 57.832 169.24 57.832H170.276C170.3 57.832 170.312 57.8213 170.312 57.8V57.108C170.312 57.084 170.3 57.072 170.276 57.072H169.24C169.216 57.072 169.204 57.084 169.204 57.108ZM167.892 56.16V56.792C167.892 56.816 167.904 56.828 167.928 56.828H168.872C168.893 56.828 168.904 56.816 168.904 56.792V56.16C168.904 56.1387 168.893 56.128 168.872 56.128H167.928C167.904 56.128 167.892 56.1387 167.892 56.16ZM167.892 57.46C167.892 57.5427 167.889 57.656 167.884 57.8C167.884 57.8213 167.895 57.832 167.916 57.832H168.872C168.893 57.832 168.904 57.8213 168.904 57.8V57.108C168.904 57.084 168.893 57.072 168.872 57.072H167.928C167.904 57.072 167.892 57.084 167.892 57.108V57.46Z" fill="white"/>
<g clip-path="url(#clip1_433_700)">
<path d="M132.549 28.2342C132.673 28.3443 132.774 28.4786 132.844 28.6289C132.914 28.7791 132.953 28.9422 132.958 29.108C132.963 29.2739 132.933 29.4389 132.872 29.593C132.811 29.7471 132.718 29.8871 132.601 30.0042L128.305 34.3002C128.188 34.4177 128.048 34.51 127.894 34.5713C127.74 34.6327 127.575 34.6619 127.409 34.6571C127.243 34.6523 127.08 34.6135 126.93 34.5433C126.779 34.473 126.645 34.3727 126.535 34.2486L113.647 19.6422C113.441 19.4102 113.332 19.1084 113.342 18.7986C113.351 18.4887 113.479 18.1942 113.698 17.9754L116.276 15.3978C116.495 15.1782 116.789 15.0505 117.099 15.0409C117.409 15.0313 117.711 15.1405 117.943 15.3462L132.549 28.2342Z" fill="#E0E0E0"/>
<path d="M105.966 15.3977L103.388 17.9753C103.161 18.2031 103.033 18.5122 103.033 18.8345C103.033 19.1567 103.161 19.4658 103.388 19.6937L105.966 22.2713C106.194 22.4991 106.503 22.6272 106.825 22.6272C107.148 22.6272 107.457 22.4991 107.684 22.2713L110.262 19.6937C110.49 19.4658 110.618 19.1567 110.618 18.8345C110.618 18.5122 110.49 18.2031 110.262 17.9753L107.684 15.3977C107.457 15.1698 107.148 15.0418 106.825 15.0418C106.503 15.0418 106.194 15.1698 105.966 15.3977Z" fill="#FDD835"/>
<path d="M124.791 5.78325C124.974 5.9625 125.096 6.19494 125.138 6.4474C125.181 6.69985 125.143 6.95942 125.03 7.18903C124.917 7.41865 124.734 7.60657 124.507 7.72597C124.281 7.84538 124.022 7.89016 123.769 7.85392C121.477 7.63971 119.183 8.23229 117.282 9.52936L119.163 11.411C119.297 11.5463 119.397 11.7111 119.455 11.8922L120.169 13.9972C120.24 14.2123 120.249 14.4429 120.196 14.663C120.143 14.8831 120.029 15.084 119.868 15.243L113.544 21.5667C113.385 21.728 113.184 21.8416 112.964 21.8947C112.744 21.9479 112.513 21.9384 112.298 21.8675L110.193 21.1543C110.012 21.096 109.847 20.9959 109.712 20.8622L104.798 15.9476C104.664 15.8123 104.564 15.6475 104.505 15.4664L103.792 13.3614C103.721 13.1463 103.712 12.9157 103.765 12.6956C103.818 12.4755 103.932 12.2746 104.093 12.1156L111.224 4.9842C113.181 3.40775 115.654 2.61626 118.162 2.76398C120.67 2.9117 123.033 3.98806 124.791 5.78325ZM101.67 16.2569L99.0924 18.8345C98.8646 19.0624 98.7366 19.3714 98.7366 19.6937C98.7366 20.016 98.8646 20.325 99.0924 20.5529L105.107 26.5673C105.335 26.7952 105.644 26.9232 105.966 26.9232C106.288 26.9232 106.597 26.7952 106.825 26.5673L109.403 23.9897C109.631 23.7618 109.759 23.4528 109.759 23.1305C109.759 22.8082 109.631 22.4992 109.403 22.2713L103.388 16.2569C103.161 16.029 102.852 15.901 102.529 15.901C102.207 15.901 101.898 16.029 101.67 16.2569Z" fill="#FFA726"/>
<path d="M132.549 28.2342C132.673 28.3442 132.774 28.4785 132.844 28.6288C132.914 28.7791 132.953 28.9422 132.958 29.108C132.963 29.2738 132.933 29.4389 132.872 29.593C132.811 29.7471 132.718 29.887 132.601 30.0041L130.453 32.1521L114.987 16.6865L116.276 15.3977C116.495 15.1781 116.789 15.0504 117.099 15.0409C117.409 15.0313 117.711 15.1405 117.943 15.3462L132.549 28.2342Z" fill="#BDBDBD"/>
<path d="M124.791 5.78328C124.973 5.96253 125.095 6.19497 125.138 6.44743C125.181 6.69988 125.143 6.95945 125.03 7.18906C124.916 7.41868 124.733 7.6066 124.507 7.726C124.28 7.84541 124.022 7.89019 123.768 7.85395C121.477 7.63974 119.182 8.23232 117.281 9.52939L119.163 11.411C119.296 11.5463 119.397 11.7112 119.455 11.8922L120.168 13.9972C120.239 14.2123 120.248 14.4429 120.195 14.663C120.142 14.8832 120.029 15.0841 119.867 15.2431L116.705 18.4049L107.254 8.95373L111.224 4.98423C113.18 3.40778 115.653 2.61629 118.161 2.76401C120.67 2.91173 123.033 3.98809 124.791 5.78328ZM103.388 16.2569L109.402 22.2713C109.63 22.4992 109.758 22.8083 109.758 23.1305C109.758 23.4528 109.63 23.7618 109.402 23.9897L108.113 25.2785L100.381 17.5457L101.669 16.2569C101.782 16.1441 101.916 16.0546 102.064 15.9935C102.211 15.9325 102.369 15.901 102.529 15.901C102.688 15.901 102.846 15.9325 102.994 15.9935C103.141 16.0546 103.275 16.1441 103.388 16.2569Z" fill="#FB8C00"/>
</g>
<rect x="93.0449" y="22" width="4.40266" height="4.40266" rx="2" transform="rotate(13.7244 93.0449 22)" fill="#FFA726"/>
<rect x="93.6377" y="29" width="1.79791" height="1.79791" transform="rotate(13.7244 93.6377 29)" fill="#FFA726"/>
</g>
<defs>
<clipPath id="clip0_433_700">
<rect width="193" height="98" fill="white"/>
</clipPath>
<clipPath id="clip1_433_700">
<rect width="32.8123" height="32.8123" fill="white" transform="translate(96 20.2017) rotate(-45)"/>
</clipPath>
</defs>
</svg>
