<svg width="193" height="98" viewBox="0 0 193 98" fill="none" xmlns="http://www.w3.org/2000/svg">
<g clip-path="url(#clip0_433_700)">
<rect x="0.25" y="0.25" width="192.5" height="97.5" rx="5.75" fill="#00C3E0" stroke="#E1E1E1" stroke-width="0.5"/>
<path d="M97.624 19C103.103 19 107.899 21.8693 110.623 26.1865C111.157 27.0386 112.017 27.6064 112.983 27.7568C120.738 28.9824 126.666 35.6729 126.666 43.7725C126.666 52.7355 119.777 59.9998 111.291 60H85.666C78.0398 59.582 72 53.6101 72 46.335C72.0001 40.7979 75.5031 36.0295 80.5391 33.8848C81.5911 33.4391 82.3441 32.4643 82.5791 31.3057C83.9997 24.2867 90.1899 19 97.624 19Z" fill="white" fill-opacity="0.5"/>
<path d="M99.333 40.1211C107.641 38.7364 118.265 38.8948 126.043 39.3067C126.448 40.7248 126.666 42.2227 126.666 43.7725C126.666 52.7355 119.777 59.9998 111.291 60H85.666C78.0398 59.582 72 53.6101 72 46.335C72 44.4275 72.4151 42.6111 73.166 40.9619C80.8902 41.3522 91.2163 41.4739 99.333 40.1211Z" fill="white"/>
<path d="M99.333 40.1211C107.641 38.7364 118.265 38.8948 126.043 39.3067C126.448 40.7248 126.666 42.2227 126.666 43.7725C126.666 52.7355 119.777 59.9998 111.291 60H85.666C78.0398 59.582 72 53.6101 72 46.335C72 44.4275 72.4151 42.6111 73.166 40.9619C80.8902 41.3522 91.2163 41.4739 99.333 40.1211Z" fill="white" fill-opacity="0.05"/>
<path d="M86.648 72.178L85.598 70.414C85.558 70.346 85.556 70.28 85.592 70.216C85.632 70.152 85.69 70.12 85.766 70.12H86.252C86.476 70.12 86.64 70.222 86.744 70.426L87.56 72.022C87.56 72.026 87.562 72.028 87.566 72.028C87.57 72.028 87.572 72.026 87.572 72.022L88.388 70.426C88.492 70.222 88.656 70.12 88.88 70.12H89.342C89.418 70.12 89.474 70.152 89.51 70.216C89.55 70.28 89.55 70.346 89.51 70.414L88.46 72.178C88.452 72.186 88.45 72.196 88.454 72.208C88.462 72.216 88.472 72.22 88.484 72.22H88.952C89.032 72.22 89.1 72.248 89.156 72.304C89.216 72.36 89.246 72.428 89.246 72.508C89.246 72.588 89.216 72.658 89.156 72.718C89.1 72.774 89.032 72.802 88.952 72.802H88.148C88.112 72.802 88.09 72.818 88.082 72.85V72.874V73.15C88.082 73.182 88.098 73.198 88.13 73.198H88.952C89.032 73.198 89.1 73.228 89.156 73.288C89.216 73.344 89.246 73.412 89.246 73.492C89.246 73.572 89.216 73.64 89.156 73.696C89.1 73.752 89.032 73.78 88.952 73.78H88.13C88.098 73.78 88.082 73.798 88.082 73.834V74.158C88.082 74.25 88.048 74.33 87.98 74.398C87.912 74.466 87.832 74.5 87.74 74.5H87.368C87.276 74.5 87.196 74.466 87.128 74.398C87.064 74.33 87.032 74.25 87.032 74.158V73.834C87.032 73.798 87.014 73.78 86.978 73.78H86.156C86.076 73.78 86.006 73.752 85.946 73.696C85.89 73.64 85.862 73.572 85.862 73.492C85.862 73.412 85.89 73.344 85.946 73.288C86.006 73.228 86.076 73.198 86.156 73.198H86.978C87.014 73.198 87.032 73.182 87.032 73.15V72.874C87.032 72.87 87.03 72.866 87.026 72.862C87.026 72.858 87.026 72.854 87.026 72.85C87.018 72.818 86.996 72.802 86.96 72.802H86.156C86.076 72.802 86.006 72.774 85.946 72.718C85.89 72.658 85.862 72.588 85.862 72.508C85.862 72.428 85.89 72.36 85.946 72.304C86.006 72.248 86.076 72.22 86.156 72.22H86.624C86.636 72.22 86.644 72.216 86.648 72.208C86.656 72.196 86.656 72.186 86.648 72.178Z" fill="white" fill-opacity="0.5"/>
<path d="M92.644 74.968C92.516 74.9413 92.4093 74.8747 92.324 74.768C92.244 74.6613 92.204 74.5387 92.204 74.4V74.152C92.204 74.04 92.2493 73.952 92.34 73.888C92.4307 73.824 92.5293 73.8053 92.636 73.832C93.068 73.944 93.412 74 93.668 74C94.452 74 94.844 73.672 94.844 73.016C94.844 72.4827 94.5773 72.216 94.044 72.216C93.9213 72.216 93.8147 72.2347 93.724 72.272C93.692 72.2827 93.6253 72.3093 93.524 72.352C93.428 72.3893 93.3533 72.4187 93.3 72.44C93.252 72.456 93.188 72.4747 93.108 72.496C93.0333 72.512 92.9613 72.52 92.892 72.52H92.644C92.5213 72.52 92.4173 72.4747 92.332 72.384C92.2467 72.2933 92.2067 72.1867 92.212 72.064L92.324 69.616C92.3347 69.488 92.3853 69.3813 92.476 69.296C92.5667 69.2053 92.676 69.16 92.804 69.16H95.452C95.5747 69.16 95.6813 69.2053 95.772 69.296C95.8627 69.3867 95.908 69.4933 95.908 69.616V69.8C95.908 69.9227 95.8627 70.0293 95.772 70.12C95.6813 70.2107 95.5747 70.256 95.452 70.256H93.644C93.596 70.256 93.572 70.2773 93.572 70.32L93.524 71.336C93.524 71.3413 93.5267 71.344 93.532 71.344H93.548C93.804 71.2373 94.0573 71.184 94.308 71.184C94.9053 71.184 95.364 71.344 95.684 71.664C96.0093 71.9787 96.172 72.4293 96.172 73.016C96.172 74.392 95.356 75.08 93.724 75.08C93.3667 75.08 93.0067 75.0427 92.644 74.968ZM97.8471 74.968C97.7191 74.9413 97.6125 74.8747 97.5271 74.768C97.4471 74.6613 97.4071 74.5387 97.4071 74.4V74.152C97.4071 74.04 97.4525 73.952 97.5431 73.888C97.6338 73.824 97.7325 73.8053 97.8391 73.832C98.2711 73.944 98.6151 74 98.8711 74C99.6551 74 100.047 73.672 100.047 73.016C100.047 72.4827 99.7805 72.216 99.2471 72.216C99.1245 72.216 99.0178 72.2347 98.9271 72.272C98.8951 72.2827 98.8285 72.3093 98.7271 72.352C98.6311 72.3893 98.5565 72.4187 98.5031 72.44C98.4551 72.456 98.3911 72.4747 98.3111 72.496C98.2365 72.512 98.1645 72.52 98.0951 72.52H97.8471C97.7245 72.52 97.6205 72.4747 97.5351 72.384C97.4498 72.2933 97.4098 72.1867 97.4151 72.064L97.5271 69.616C97.5378 69.488 97.5885 69.3813 97.6791 69.296C97.7698 69.2053 97.8791 69.16 98.0071 69.16H100.655C100.778 69.16 100.884 69.2053 100.975 69.296C101.066 69.3867 101.111 69.4933 101.111 69.616V69.8C101.111 69.9227 101.066 70.0293 100.975 70.12C100.884 70.2107 100.778 70.256 100.655 70.256H98.8471C98.7991 70.256 98.7751 70.2773 98.7751 70.32L98.7271 71.336C98.7271 71.3413 98.7298 71.344 98.7351 71.344H98.7511C99.0071 71.2373 99.2605 71.184 99.5111 71.184C100.108 71.184 100.567 71.344 100.887 71.664C101.212 71.9787 101.375 72.4293 101.375 73.016C101.375 74.392 100.559 75.08 98.9271 75.08C98.5698 75.08 98.2098 75.0427 97.8471 74.968ZM103.05 74.968C102.922 74.9413 102.816 74.8747 102.73 74.768C102.65 74.6613 102.61 74.5387 102.61 74.4V74.152C102.61 74.04 102.656 73.952 102.746 73.888C102.837 73.824 102.936 73.8053 103.042 73.832C103.474 73.944 103.818 74 104.074 74C104.858 74 105.25 73.672 105.25 73.016C105.25 72.4827 104.984 72.216 104.45 72.216C104.328 72.216 104.221 72.2347 104.13 72.272C104.098 72.2827 104.032 72.3093 103.93 72.352C103.834 72.3893 103.76 72.4187 103.706 72.44C103.658 72.456 103.594 72.4747 103.514 72.496C103.44 72.512 103.368 72.52 103.298 72.52H103.05C102.928 72.52 102.824 72.4747 102.738 72.384C102.653 72.2933 102.613 72.1867 102.618 72.064L102.73 69.616C102.741 69.488 102.792 69.3813 102.882 69.296C102.973 69.2053 103.082 69.16 103.21 69.16H105.858C105.981 69.16 106.088 69.2053 106.178 69.296C106.269 69.3867 106.314 69.4933 106.314 69.616V69.8C106.314 69.9227 106.269 70.0293 106.178 70.12C106.088 70.2107 105.981 70.256 105.858 70.256H104.05C104.002 70.256 103.978 70.2773 103.978 70.32L103.93 71.336C103.93 71.3413 103.933 71.344 103.938 71.344H103.954C104.21 71.2373 104.464 71.184 104.714 71.184C105.312 71.184 105.77 71.344 106.09 71.664C106.416 71.9787 106.578 72.4293 106.578 73.016C106.578 74.392 105.762 75.08 104.13 75.08C103.773 75.08 103.413 75.0427 103.05 74.968Z" fill="white"/>
<path d="M82.944 80.628C82.9413 80.6307 82.94 80.6333 82.94 80.636C82.94 80.6387 82.9413 80.64 82.944 80.64H84C84.0507 80.64 84.0933 80.6573 84.128 80.692C84.1627 80.7267 84.18 80.7693 84.18 80.82C84.18 80.8707 84.1627 80.9133 84.128 80.948C84.0933 80.9827 84.0507 81 84 81H82.52C82.4693 81 82.4267 80.9827 82.392 80.948C82.3573 80.9133 82.34 80.8707 82.34 80.82C82.34 80.7027 82.3867 80.6053 82.48 80.528C82.9653 80.136 83.2933 79.8253 83.464 79.596C83.6373 79.364 83.724 79.1387 83.724 78.92C83.724 78.5787 83.5427 78.408 83.18 78.408C83.0013 78.408 82.804 78.4547 82.588 78.548C82.5427 78.5667 82.5 78.564 82.46 78.54C82.42 78.516 82.4 78.48 82.4 78.432C82.4 78.3653 82.4173 78.3053 82.452 78.252C82.4867 78.1987 82.5347 78.1627 82.596 78.144C82.812 78.0747 83.0267 78.04 83.24 78.04C83.5387 78.04 83.7693 78.1147 83.932 78.264C84.0973 78.4107 84.18 78.616 84.18 78.88C84.18 79.144 84.0947 79.4013 83.924 79.652C83.756 79.9 83.4293 80.2253 82.944 80.628ZM86.2595 78.656C86.1555 78.48 85.9955 78.392 85.7795 78.392C85.5635 78.392 85.4022 78.48 85.2955 78.656C85.1915 78.8293 85.1395 79.124 85.1395 79.54C85.1395 79.956 85.1915 80.252 85.2955 80.428C85.4022 80.6013 85.5635 80.688 85.7795 80.688C85.9955 80.688 86.1555 80.6013 86.2595 80.428C86.3662 80.252 86.4195 79.956 86.4195 79.54C86.4195 79.124 86.3662 78.8293 86.2595 78.656ZM86.5875 80.684C86.4089 80.9213 86.1395 81.04 85.7795 81.04C85.4195 81.04 85.1489 80.9213 84.9675 80.684C84.7889 80.4467 84.6995 80.0653 84.6995 79.54C84.6995 79.0147 84.7889 78.6333 84.9675 78.396C85.1489 78.1587 85.4195 78.04 85.7795 78.04C86.1395 78.04 86.4089 78.1587 86.5875 78.396C86.7689 78.6333 86.8595 79.0147 86.8595 79.54C86.8595 80.0653 86.7689 80.4467 86.5875 80.684ZM87.9831 80.628C87.9804 80.6307 87.9791 80.6333 87.9791 80.636C87.9791 80.6387 87.9804 80.64 87.9831 80.64H89.0391C89.0897 80.64 89.1324 80.6573 89.1671 80.692C89.2017 80.7267 89.2191 80.7693 89.2191 80.82C89.2191 80.8707 89.2017 80.9133 89.1671 80.948C89.1324 80.9827 89.0897 81 89.0391 81H87.5591C87.5084 81 87.4657 80.9827 87.4311 80.948C87.3964 80.9133 87.3791 80.8707 87.3791 80.82C87.3791 80.7027 87.4257 80.6053 87.5191 80.528C88.0044 80.136 88.3324 79.8253 88.5031 79.596C88.6764 79.364 88.7631 79.1387 88.7631 78.92C88.7631 78.5787 88.5817 78.408 88.2191 78.408C88.0404 78.408 87.8431 78.4547 87.6271 78.548C87.5817 78.5667 87.5391 78.564 87.4991 78.54C87.4591 78.516 87.4391 78.48 87.4391 78.432C87.4391 78.3653 87.4564 78.3053 87.4911 78.252C87.5257 78.1987 87.5737 78.1627 87.6351 78.144C87.8511 78.0747 88.0657 78.04 88.2791 78.04C88.5777 78.04 88.8084 78.1147 88.9711 78.264C89.1364 78.4107 89.2191 78.616 89.2191 78.88C89.2191 79.144 89.1337 79.4013 88.9631 79.652C88.7951 79.9 88.4684 80.2253 87.9831 80.628ZM90.8386 79.372C90.6573 79.372 90.5093 79.4307 90.3946 79.548C90.2826 79.6627 90.2266 79.8133 90.2266 80C90.2266 80.208 90.2839 80.3733 90.3986 80.496C90.5133 80.6187 90.6599 80.68 90.8386 80.68C91.0333 80.68 91.1853 80.6227 91.2946 80.508C91.4039 80.3907 91.4586 80.2213 91.4586 80C91.4586 79.808 91.4013 79.656 91.2866 79.544C91.1746 79.4293 91.0253 79.372 90.8386 79.372ZM90.8386 81.04C90.1319 81.04 89.7786 80.6 89.7786 79.72C89.7786 79.1573 89.8853 78.7373 90.0986 78.46C90.3119 78.18 90.6186 78.04 91.0186 78.04C91.1439 78.04 91.2693 78.052 91.3946 78.076C91.4506 78.0867 91.4946 78.1147 91.5266 78.16C91.5613 78.2027 91.5786 78.2533 91.5786 78.312C91.5786 78.3573 91.5599 78.3933 91.5226 78.42C91.4853 78.4467 91.4426 78.4547 91.3946 78.444C91.2693 78.4147 91.1439 78.4 91.0186 78.4C90.8106 78.4 90.6373 78.476 90.4986 78.628C90.3626 78.7773 90.2813 78.992 90.2546 79.272C90.2546 79.2773 90.2559 79.28 90.2586 79.28H90.2666C90.4266 79.12 90.6506 79.04 90.9386 79.04C91.2346 79.04 91.4679 79.1267 91.6386 79.3C91.8119 79.4733 91.8986 79.7067 91.8986 80C91.8986 80.3253 91.8026 80.58 91.6106 80.764C91.4186 80.948 91.1613 81.04 90.8386 81.04ZM92.4421 80.528C92.3915 80.528 92.3475 80.5107 92.3101 80.476C92.2755 80.4413 92.2581 80.3973 92.2581 80.344C92.2581 80.2907 92.2755 80.2467 92.3101 80.212C92.3475 80.1773 92.3915 80.16 92.4421 80.16H92.9421C92.9661 80.16 92.9781 80.1493 92.9781 80.128V79.296C92.9781 79.2347 93.0008 79.1813 93.0461 79.136C93.0915 79.0907 93.1448 79.068 93.2061 79.068H94.0221C94.0461 79.068 94.0581 79.0573 94.0581 79.036V78.492C94.0581 78.4707 94.0461 78.46 94.0221 78.46H93.2341C93.2101 78.46 93.1941 78.4693 93.1861 78.488C93.0661 78.7733 92.9168 79.0627 92.7381 79.356C92.7088 79.404 92.6648 79.4347 92.6061 79.448C92.5501 79.4587 92.4995 79.4467 92.4541 79.412C92.4061 79.3773 92.3768 79.332 92.3661 79.276C92.3581 79.2173 92.3688 79.1627 92.3981 79.112C92.6275 78.7467 92.8195 78.34 92.9741 77.892C92.9955 77.836 93.0301 77.7933 93.0781 77.764C93.1288 77.7347 93.1835 77.7253 93.2421 77.736C93.2955 77.7467 93.3368 77.776 93.3661 77.824C93.3955 77.872 93.4008 77.9227 93.3821 77.976C93.3768 77.9867 93.3715 78.0027 93.3661 78.024C93.3608 78.0427 93.3555 78.0573 93.3501 78.068C93.3448 78.0893 93.3528 78.1 93.3741 78.1H95.5381C95.5888 78.1 95.6315 78.1173 95.6661 78.152C95.7008 78.1867 95.7181 78.2293 95.7181 78.28C95.7181 78.3307 95.7008 78.3733 95.6661 78.408C95.6315 78.4427 95.5888 78.46 95.5381 78.46H94.5341C94.5101 78.46 94.4981 78.4707 94.4981 78.492V79.036C94.4981 79.0573 94.5101 79.068 94.5341 79.068H95.4181C95.4688 79.068 95.5115 79.0853 95.5461 79.12C95.5808 79.1547 95.5981 79.1973 95.5981 79.248C95.5981 79.2987 95.5808 79.3427 95.5461 79.38C95.5115 79.4147 95.4688 79.432 95.4181 79.432H94.5341C94.5101 79.432 94.4981 79.4427 94.4981 79.464V80.128C94.4981 80.1493 94.5101 80.16 94.5341 80.16H95.7141C95.7648 80.16 95.8075 80.1773 95.8421 80.212C95.8795 80.2467 95.8981 80.2907 95.8981 80.344C95.8981 80.3973 95.8795 80.4413 95.8421 80.476C95.8075 80.5107 95.7648 80.528 95.7141 80.528H94.5341C94.5101 80.528 94.4981 80.54 94.4981 80.564V81.14C94.4981 81.2013 94.4755 81.2533 94.4301 81.296C94.3875 81.3387 94.3368 81.36 94.2781 81.36C94.2195 81.36 94.1675 81.3387 94.1221 81.296C94.0795 81.2533 94.0581 81.2013 94.0581 81.14V80.564C94.0581 80.54 94.0461 80.528 94.0221 80.528H92.4421ZM93.3981 79.464V80.128C93.3981 80.1493 93.4101 80.16 93.4341 80.16H94.0221C94.0461 80.16 94.0581 80.1493 94.0581 80.128V79.464C94.0581 79.4427 94.0461 79.432 94.0221 79.432H93.4341C93.4101 79.432 93.3981 79.4427 93.3981 79.464ZM97.6795 81.232C97.6288 81.2507 97.5782 81.2493 97.5275 81.228C97.4795 81.2093 97.4448 81.176 97.4235 81.128C97.4048 81.0827 97.4048 81.0373 97.4235 80.992C97.4448 80.9467 97.4782 80.916 97.5235 80.9C98.0382 80.716 98.4675 80.5053 98.8115 80.268C98.8168 80.2653 98.8182 80.2613 98.8155 80.256C98.8155 80.2507 98.8128 80.248 98.8075 80.248H98.0395C98.0182 80.248 98.0048 80.2587 97.9995 80.28C97.9835 80.3387 97.9515 80.384 97.9035 80.416C97.8555 80.448 97.8008 80.4613 97.7395 80.456C97.6862 80.4507 97.6435 80.4253 97.6115 80.38C97.5822 80.3347 97.5742 80.2853 97.5875 80.232C97.6435 79.992 97.6915 79.756 97.7315 79.524C97.7422 79.46 97.7728 79.4067 97.8235 79.364C97.8742 79.3213 97.9315 79.3 97.9955 79.3H98.9595C98.9835 79.3 98.9955 79.288 98.9955 79.264V79.024C98.9955 79 98.9835 78.988 98.9595 78.988H97.7715C97.7262 78.988 97.6875 78.972 97.6555 78.94C97.6235 78.908 97.6075 78.8693 97.6075 78.824C97.6075 78.776 97.6235 78.736 97.6555 78.704C97.6635 78.696 97.6595 78.692 97.6435 78.692C97.5875 78.692 97.5382 78.6707 97.4955 78.628C97.4582 78.5907 97.4395 78.5467 97.4395 78.496C97.4422 78.4427 97.4622 78.3973 97.4995 78.36C97.6542 78.2053 97.7835 78.036 97.8875 77.852C97.9168 77.7987 97.9568 77.76 98.0075 77.736C98.0608 77.712 98.1168 77.7053 98.1755 77.716H98.1875C98.2382 77.7267 98.2742 77.7547 98.2955 77.8C98.3195 77.8453 98.3208 77.8907 98.2995 77.936C98.2942 77.952 98.2995 77.96 98.3155 77.96H99.0275C99.0862 77.96 99.1355 77.98 99.1755 78.02C99.2155 78.06 99.2355 78.1093 99.2355 78.168C99.2355 78.1733 99.2368 78.1773 99.2395 78.18C99.2448 78.1827 99.2502 78.1827 99.2555 78.18C99.3595 78.0707 99.4488 77.9587 99.5235 77.844C99.5955 77.732 99.6928 77.6893 99.8155 77.716H99.8235C99.8742 77.7267 99.9102 77.7547 99.9315 77.8C99.9555 77.8453 99.9555 77.8907 99.9315 77.936C99.9208 77.952 99.9262 77.96 99.9475 77.96H100.84C100.888 77.96 100.929 77.9773 100.964 78.012C100.998 78.0467 101.016 78.088 101.016 78.136C101.016 78.184 100.998 78.2253 100.964 78.26C100.929 78.2947 100.888 78.312 100.84 78.312H100.348C100.329 78.312 100.322 78.3213 100.328 78.34C100.344 78.3773 100.365 78.4333 100.392 78.508C100.408 78.5453 100.409 78.5853 100.396 78.628C100.39 78.6493 100.398 78.66 100.42 78.66H100.56C100.621 78.66 100.673 78.6827 100.716 78.728C100.761 78.7733 100.784 78.8267 100.784 78.888V79.392C100.784 79.4533 100.761 79.5067 100.716 79.552C100.673 79.5973 100.621 79.62 100.56 79.62H99.4715C99.4475 79.62 99.4355 79.632 99.4355 79.656V79.896C99.4355 79.9173 99.4475 79.928 99.4715 79.928H100.72C100.781 79.928 100.833 79.9507 100.876 79.996C100.921 80.0413 100.944 80.0947 100.944 80.156C100.938 80.46 100.918 80.6827 100.884 80.824C100.849 80.9627 100.798 81.0533 100.732 81.096C100.668 81.1387 100.565 81.16 100.424 81.16C100.306 81.16 100.169 81.1547 100.012 81.144C99.9608 81.1387 99.9182 81.1173 99.8835 81.08C99.8488 81.0453 99.8315 81.0027 99.8315 80.952C99.8315 80.904 99.8488 80.864 99.8835 80.832C99.9208 80.7973 99.9635 80.7813 100.012 80.784C100.182 80.7947 100.277 80.8 100.296 80.8C100.336 80.8 100.364 80.7987 100.38 80.796C100.396 80.7907 100.412 80.7813 100.428 80.768C100.446 80.7547 100.458 80.7267 100.464 80.684C100.469 80.6413 100.473 80.592 100.476 80.536C100.478 80.48 100.481 80.3973 100.484 80.288C100.484 80.2613 100.473 80.248 100.452 80.248H99.4715C99.4475 80.248 99.4355 80.26 99.4355 80.284V81.1C99.4355 81.1613 99.4128 81.2133 99.3675 81.256C99.3248 81.2987 99.2742 81.32 99.2155 81.32C99.1568 81.32 99.1048 81.2987 99.0595 81.256C99.0168 81.2133 98.9955 81.1613 98.9955 81.1V80.568C98.9955 80.5467 98.9848 80.5427 98.9635 80.556C98.6168 80.8093 98.1888 81.0347 97.6795 81.232ZM100.368 79.264V79.024C100.368 79 100.356 78.988 100.332 78.988H99.4715C99.4475 78.988 99.4355 79 99.4355 79.024V79.264C99.4355 79.288 99.4475 79.3 99.4715 79.3H100.332C100.356 79.3 100.368 79.288 100.368 79.264ZM97.7795 78.66H98.3195C98.3355 78.66 98.3408 78.6493 98.3355 78.628V78.624C98.2875 78.496 98.2502 78.4013 98.2235 78.34C98.2155 78.3213 98.1995 78.312 98.1755 78.312H98.1035C98.0822 78.312 98.0648 78.32 98.0515 78.336C97.9662 78.4453 97.8768 78.5453 97.7835 78.636L97.7755 78.644C97.7728 78.6467 97.7715 78.6507 97.7715 78.656C97.7715 78.6587 97.7742 78.66 97.7795 78.66ZM98.7595 78.66H99.9795C99.9955 78.66 100.001 78.6493 99.9955 78.628V78.624C99.9475 78.496 99.9102 78.4013 99.8835 78.34C99.8755 78.3213 99.8595 78.312 99.8355 78.312H99.7075C99.6835 78.312 99.6662 78.32 99.6555 78.336C99.6022 78.4 99.5275 78.4747 99.4315 78.56C99.3888 78.5973 99.3382 78.616 99.2795 78.616C99.2235 78.6133 99.1755 78.592 99.1355 78.552L99.0955 78.512C99.0688 78.4853 99.0555 78.4533 99.0555 78.416C99.0582 78.3787 99.0742 78.348 99.1035 78.324C99.1035 78.3187 99.1022 78.3147 99.0995 78.312H98.6875C98.6688 78.312 98.6622 78.3213 98.6675 78.34C98.6835 78.3773 98.7048 78.4333 98.7315 78.508C98.7475 78.5453 98.7488 78.5853 98.7355 78.628C98.7302 78.6493 98.7382 78.66 98.7595 78.66ZM98.1155 79.928H98.9595C98.9835 79.928 98.9955 79.9173 98.9955 79.896V79.656C98.9955 79.632 98.9835 79.62 98.9595 79.62H98.1755C98.1542 79.62 98.1408 79.6307 98.1355 79.652C98.1248 79.716 98.1102 79.7973 98.0915 79.896C98.0862 79.9173 98.0942 79.928 98.1155 79.928ZM101.596 79.68C101.537 79.68 101.488 79.66 101.448 79.62C101.408 79.58 101.388 79.5307 101.388 79.472C101.388 79.4133 101.408 79.364 101.448 79.324C101.488 79.2813 101.537 79.26 101.596 79.26H104.78C104.838 79.26 104.888 79.2813 104.928 79.324C104.968 79.364 104.988 79.4133 104.988 79.472C104.988 79.5307 104.968 79.58 104.928 79.62C104.888 79.66 104.838 79.68 104.78 79.68H101.596ZM108 81.328C107.949 81.3253 107.905 81.3053 107.868 81.268C107.833 81.2333 107.814 81.1907 107.812 81.14C107.809 81.092 107.824 81.0507 107.856 81.016C107.89 80.9813 107.932 80.9653 107.98 80.968C108.132 80.976 108.236 80.98 108.292 80.98C108.39 80.98 108.449 80.9707 108.468 80.952C108.489 80.9307 108.5 80.8693 108.5 80.768V78.224C108.5 78.2027 108.488 78.192 108.464 78.192H107.516C107.492 78.192 107.48 78.2027 107.48 78.224V78.448C107.48 78.4693 107.492 78.48 107.516 78.48H108.116C108.158 78.48 108.194 78.496 108.224 78.528C108.256 78.5573 108.272 78.5933 108.272 78.636C108.272 78.6787 108.256 78.716 108.224 78.748C108.194 78.7773 108.158 78.792 108.116 78.792H107.516C107.492 78.792 107.48 78.8027 107.48 78.824V79.108C107.48 79.1293 107.492 79.14 107.516 79.14H108.192C108.234 79.14 108.272 79.156 108.304 79.188C108.336 79.2173 108.352 79.2547 108.352 79.3C108.352 79.3453 108.336 79.384 108.304 79.416C108.272 79.4453 108.234 79.46 108.192 79.46H106.36C106.317 79.46 106.28 79.4453 106.248 79.416C106.216 79.384 106.2 79.3453 106.2 79.3C106.2 79.2547 106.216 79.2173 106.248 79.188C106.28 79.156 106.317 79.14 106.36 79.14H107.036C107.06 79.14 107.072 79.1293 107.072 79.108V78.824C107.072 78.8027 107.06 78.792 107.036 78.792H106.436C106.393 78.792 106.356 78.7773 106.324 78.748C106.294 78.716 106.28 78.6787 106.28 78.636C106.28 78.5933 106.294 78.5573 106.324 78.528C106.356 78.496 106.393 78.48 106.436 78.48H107.036C107.06 78.48 107.072 78.4693 107.072 78.448V78.224C107.072 78.2027 107.06 78.192 107.036 78.192H106.084C106.062 78.192 106.052 78.2027 106.052 78.224V79.488C106.052 79.9067 106.025 80.2453 105.972 80.504C105.921 80.76 105.836 80.988 105.715 81.188C105.686 81.2387 105.641 81.268 105.58 81.276C105.521 81.2867 105.469 81.2733 105.424 81.236C105.376 81.1987 105.346 81.148 105.336 81.084C105.328 81.0227 105.34 80.9653 105.372 80.912C105.468 80.7387 105.534 80.5347 105.572 80.3C105.612 80.0627 105.632 79.736 105.632 79.32V78.068C105.632 78.0067 105.653 77.9533 105.696 77.908C105.741 77.8627 105.794 77.84 105.856 77.84H108.692C108.753 77.84 108.806 77.8627 108.852 77.908C108.897 77.9533 108.92 78.0067 108.92 78.068V80.76C108.92 81.024 108.889 81.1867 108.828 81.248C108.769 81.3093 108.613 81.34 108.36 81.34C108.288 81.34 108.168 81.336 108 81.328ZM108.22 80.592C108.22 80.6533 108.197 80.7067 108.152 80.752C108.106 80.7973 108.053 80.82 107.992 80.82H106.748C106.729 80.82 106.72 80.8293 106.72 80.848C106.72 80.896 106.702 80.9373 106.668 80.972C106.636 81.004 106.596 81.02 106.548 81.02H106.52C106.464 81.02 106.416 81.0013 106.376 80.964C106.338 80.924 106.32 80.876 106.32 80.82V79.908C106.32 79.8467 106.342 79.7933 106.388 79.748C106.433 79.7027 106.486 79.68 106.548 79.68H107.992C108.053 79.68 108.106 79.7027 108.152 79.748C108.197 79.7933 108.22 79.8467 108.22 79.908V80.592ZM107.82 80.476V80.032C107.82 80.0107 107.808 80 107.784 80H106.752C106.73 80 106.72 80.0107 106.72 80.032V80.476C106.72 80.5 106.73 80.512 106.752 80.512H107.784C107.808 80.512 107.82 80.5 107.82 80.476Z" fill="black" fill-opacity="0.1"/>
<path d="M54.6313 91C35.507 91 24.0578 77 0 77V119H208V78.2174C200.649 82.4783 172.442 80.1015 152.366 85.5217C108 97.5 72.1735 91 54.6313 91Z" fill="black" fill-opacity="0.05"/>
<g filter="url(#filter0_d_433_700)">
<rect x="41.084" y="78" width="13" height="13" rx="3" transform="rotate(13.7244 41.084 78)" fill="#CE82FF"/>
</g>
<g filter="url(#filter1_d_433_700)">
<rect x="55" y="82" width="11" height="10" rx="5" fill="#FFC800"/>
</g>
<path d="M58.4148 85.2759H62.9723C63.0923 85.2759 63.2081 85.3206 63.297 85.4012C63.386 85.4819 63.4417 85.5928 63.4533 85.7123L63.8174 89.4439C63.8203 89.4737 63.8169 89.5038 63.8075 89.5323C63.7981 89.5607 63.7828 89.5869 63.7627 89.6091C63.7425 89.6313 63.718 89.649 63.6906 89.6611C63.6632 89.6733 63.6335 89.6795 63.6036 89.6795H57.6923C57.6619 89.6795 57.6319 89.6731 57.6041 89.6606C57.5764 89.6481 57.5517 89.6299 57.5315 89.6071C57.5114 89.5843 57.4963 89.5576 57.4872 89.5285C57.4782 89.4995 57.4754 89.4689 57.4791 89.4387L57.9349 85.7007C57.9492 85.5835 58.0059 85.4756 58.0943 85.3973C58.1827 85.3191 58.2967 85.2759 58.4148 85.2759Z" fill="white" fill-opacity="0.5"/>
<path d="M60.457 87.3701H60.8329C60.9761 87.3701 61.0477 87.4417 61.0477 87.5849V88.3905C61.0477 88.5337 60.9761 88.6053 60.8329 88.6053H60.457C60.3138 88.6053 60.2422 88.5337 60.2422 88.3905V87.5849C60.2422 87.4417 60.3138 87.3701 60.457 87.3701Z" fill="white" fill-opacity="0.6"/>
<path d="M60.5107 88.2295H60.7792C60.8508 88.2295 60.8866 88.2653 60.8866 88.3369C60.8866 88.4085 60.8508 88.4443 60.7792 88.4443H60.5107C60.4391 88.4443 60.4033 88.4085 60.4033 88.3369C60.4033 88.2653 60.4391 88.2295 60.5107 88.2295Z" fill="white" fill-opacity="0.4"/>
<path d="M60.7222 87.9074C62.2874 87.9074 63.465 86.2772 63.465 85.625C63.465 84.9728 62.2874 85.1148 60.7222 85.1148C59.1568 85.1148 57.9336 84.8977 57.9336 85.625C57.9336 86.3522 59.1568 87.9074 60.7222 87.9074Z" fill="white" fill-opacity="0.4"/>
<g clip-path="url(#clip1_433_700)">
<path d="M46.1903 88.9107L46.7002 87.394L49.28 89.6618L49.5196 88.7675L47.3322 85.2504L47.7932 83.53C47.915 83.0756 47.7305 82.2902 47.2762 82.1685C46.8217 82.0467 46.2694 82.6346 46.1476 83.089L45.6867 84.8095L42.0337 86.7617L41.7941 87.656L45.1127 86.9686L44.7851 88.6698C44.7743 88.7101 44.7687 88.75 44.7625 88.7898L44.1024 89.1288L43.9601 89.6599L45.297 89.5832L45.3182 89.582L46.3837 90.3093L46.526 89.7782L46.1106 89.1348L46.1903 88.9107Z" fill="white" fill-opacity="0.2"/>
</g>
<path d="M4.656 94.776L4.164 92.304C4.15067 92.2453 4.16267 92.1933 4.2 92.148C4.24 92.1027 4.28933 92.08 4.348 92.08H4.58C4.644 92.08 4.70133 92.1013 4.752 92.144C4.80267 92.1867 4.832 92.24 4.84 92.304L5.112 94.304C5.112 94.3067 5.11333 94.308 5.116 94.308C5.11867 94.308 5.12 94.3067 5.12 94.304L5.368 92.304C5.376 92.24 5.404 92.1867 5.452 92.144C5.5 92.1013 5.556 92.08 5.62 92.08H5.996C6.06 92.08 6.116 92.1013 6.164 92.144C6.212 92.1867 6.24 92.24 6.248 92.304L6.496 94.304C6.496 94.3067 6.49733 94.308 6.5 94.308C6.50267 94.308 6.504 94.3067 6.504 94.304L6.776 92.304C6.784 92.24 6.81333 92.1867 6.864 92.144C6.91467 92.1013 6.972 92.08 7.036 92.08H7.252C7.31067 92.08 7.35867 92.1027 7.396 92.148C7.43333 92.1933 7.44667 92.2453 7.436 92.304L6.944 94.776C6.93067 94.84 6.89867 94.8933 6.848 94.936C6.79733 94.9787 6.73867 95 6.672 95H6.332C6.268 95 6.21067 94.9787 6.16 94.936C6.112 94.8933 6.084 94.84 6.076 94.776L5.804 92.776C5.804 92.7733 5.80267 92.772 5.8 92.772C5.79733 92.772 5.796 92.7733 5.796 92.776L5.524 94.776C5.516 94.84 5.48667 94.8933 5.436 94.936C5.388 94.9787 5.332 95 5.268 95H4.928C4.86133 95 4.80133 94.9787 4.748 94.936C4.69733 94.8933 4.66667 94.84 4.656 94.776ZM8.15841 95C8.09707 95 8.04374 94.9773 7.99841 94.932C7.95307 94.8867 7.93041 94.8333 7.93041 94.772V93.148C7.93041 93.0867 7.95307 93.0333 7.99841 92.988C8.04374 92.9427 8.09707 92.92 8.15841 92.92H8.38241C8.44374 92.92 8.49707 92.9427 8.54241 92.988C8.58774 93.0333 8.61041 93.0867 8.61041 93.148V94.772C8.61041 94.8333 8.58774 94.8867 8.54241 94.932C8.49707 94.9773 8.44374 95 8.38241 95H8.15841ZM8.15841 92.52C8.09707 92.52 8.04374 92.4973 7.99841 92.452C7.95307 92.4067 7.93041 92.3533 7.93041 92.292V92.228C7.93041 92.1667 7.95307 92.1133 7.99841 92.068C8.04374 92.0227 8.09707 92 8.15841 92H8.38241C8.44374 92 8.49707 92.0227 8.54241 92.068C8.58774 92.1133 8.61041 92.1667 8.61041 92.228V92.292C8.61041 92.3533 8.58774 92.4067 8.54241 92.452C8.49707 92.4973 8.44374 92.52 8.38241 92.52H8.15841ZM9.98066 94.2C9.69266 94.1467 9.48599 94.064 9.36066 93.952C9.23799 93.84 9.17666 93.692 9.17666 93.508C9.17666 93.3107 9.24999 93.1573 9.39666 93.048C9.54599 92.936 9.76999 92.88 10.0687 92.88C10.2447 92.88 10.4247 92.8947 10.6087 92.924C10.6727 92.9347 10.7247 92.9653 10.7647 93.016C10.8073 93.0667 10.8287 93.1253 10.8287 93.192V93.212C10.8287 93.268 10.806 93.3133 10.7607 93.348C10.718 93.3827 10.6687 93.3947 10.6127 93.384C10.4393 93.3493 10.2793 93.332 10.1327 93.332C10.0233 93.332 9.94599 93.3453 9.90066 93.372C9.85799 93.3987 9.83666 93.4387 9.83666 93.492C9.83666 93.5933 9.91666 93.66 10.0767 93.692C10.3807 93.7427 10.5927 93.8227 10.7127 93.932C10.8353 94.0413 10.8967 94.2 10.8967 94.408C10.8967 94.608 10.822 94.764 10.6727 94.876C10.5233 94.9853 10.306 95.04 10.0207 95.04C9.81266 95.04 9.61532 95.02 9.42866 94.98C9.36466 94.9667 9.31132 94.9333 9.26866 94.88C9.22866 94.824 9.20866 94.7613 9.20866 94.692V94.66C9.20866 94.604 9.23132 94.5613 9.27666 94.532C9.32199 94.5 9.37266 94.4907 9.42866 94.504C9.60199 94.5493 9.77266 94.572 9.94066 94.572C10.138 94.572 10.2367 94.5147 10.2367 94.4C10.2367 94.3467 10.218 94.3053 10.1807 94.276C10.146 94.2467 10.0793 94.2213 9.98066 94.2ZM11.6136 95C11.5522 95 11.4989 94.9773 11.4536 94.932C11.4082 94.8867 11.3856 94.8333 11.3856 94.772V92.228C11.3856 92.1667 11.4082 92.1133 11.4536 92.068C11.4989 92.0227 11.5522 92 11.6136 92H11.8056C11.8669 92 11.9202 92.0227 11.9656 92.068C12.0109 92.1133 12.0336 92.1667 12.0336 92.228V93.136C12.0336 93.1387 12.0349 93.14 12.0376 93.14C12.0402 93.14 12.0429 93.1387 12.0456 93.136C12.2322 92.9653 12.4322 92.88 12.6456 92.88C12.8909 92.88 13.0669 92.9507 13.1736 93.092C13.2802 93.2307 13.3336 93.48 13.3336 93.84V94.772C13.3336 94.8333 13.3109 94.8867 13.2656 94.932C13.2202 94.9773 13.1669 95 13.1056 95H12.9296C12.8682 95 12.8149 94.9773 12.7696 94.932C12.7242 94.8867 12.7016 94.8333 12.7016 94.772V93.92C12.7016 93.7067 12.6802 93.5653 12.6376 93.496C12.5976 93.4267 12.5202 93.392 12.4056 93.392C12.3149 93.392 12.2296 93.432 12.1496 93.512C12.0722 93.5893 12.0336 93.672 12.0336 93.76V94.772C12.0336 94.8333 12.0109 94.8867 11.9656 94.932C11.9202 94.9773 11.8669 95 11.8056 95H11.6136ZM14.5501 92.616V93.488C14.5501 93.5067 14.5621 93.5187 14.5861 93.524C14.6768 93.5347 14.7488 93.54 14.8021 93.54C14.9941 93.54 15.1421 93.496 15.2461 93.408C15.3528 93.3173 15.4061 93.192 15.4061 93.032C15.4061 92.7147 15.2048 92.556 14.8021 92.556C14.7355 92.556 14.6621 92.5627 14.5821 92.576C14.5608 92.5813 14.5501 92.5947 14.5501 92.616ZM14.1101 95C14.0488 95 13.9955 94.9773 13.9501 94.932C13.9048 94.8867 13.8821 94.8333 13.8821 94.772V92.328C13.8821 92.264 13.9035 92.2067 13.9461 92.156C13.9888 92.1053 14.0421 92.0773 14.1061 92.072C14.3328 92.0507 14.5515 92.04 14.7621 92.04C15.6155 92.04 16.0421 92.3573 16.0421 92.992C16.0421 93.336 15.9421 93.5973 15.7421 93.776C15.5448 93.952 15.2541 94.04 14.8701 94.04C14.7688 94.04 14.6741 94.036 14.5861 94.028C14.5621 94.028 14.5501 94.0387 14.5501 94.06V94.772C14.5501 94.8333 14.5275 94.8867 14.4821 94.932C14.4368 94.9773 14.3835 95 14.3221 95H14.1101ZM17.5344 93.48C17.4704 93.3813 17.3717 93.332 17.2384 93.332C17.1051 93.332 17.0051 93.3813 16.9384 93.48C16.8744 93.5787 16.8424 93.7387 16.8424 93.96C16.8424 94.1813 16.8744 94.3413 16.9384 94.44C17.0051 94.5387 17.1051 94.588 17.2384 94.588C17.3717 94.588 17.4704 94.5387 17.5344 94.44C17.6011 94.3413 17.6344 94.1813 17.6344 93.96C17.6344 93.7387 17.6011 93.5787 17.5344 93.48ZM18.0104 94.756C17.8264 94.9453 17.5691 95.04 17.2384 95.04C16.9077 95.04 16.6504 94.9453 16.4664 94.756C16.2824 94.5667 16.1904 94.3013 16.1904 93.96C16.1904 93.6187 16.2824 93.3533 16.4664 93.164C16.6504 92.9747 16.9077 92.88 17.2384 92.88C17.5691 92.88 17.8264 92.9747 18.0104 93.164C18.1944 93.3533 18.2864 93.6187 18.2864 93.96C18.2864 94.3013 18.1944 94.5667 18.0104 94.756ZM19.9172 93.48C19.8532 93.3813 19.7546 93.332 19.6212 93.332C19.4879 93.332 19.3879 93.3813 19.3212 93.48C19.2572 93.5787 19.2252 93.7387 19.2252 93.96C19.2252 94.1813 19.2572 94.3413 19.3212 94.44C19.3879 94.5387 19.4879 94.588 19.6212 94.588C19.7546 94.588 19.8532 94.5387 19.9172 94.44C19.9839 94.3413 20.0172 94.1813 20.0172 93.96C20.0172 93.7387 19.9839 93.5787 19.9172 93.48ZM20.3932 94.756C20.2092 94.9453 19.9519 95.04 19.6212 95.04C19.2906 95.04 19.0332 94.9453 18.8492 94.756C18.6652 94.5667 18.5732 94.3013 18.5732 93.96C18.5732 93.6187 18.6652 93.3533 18.8492 93.164C19.0332 92.9747 19.2906 92.88 19.6212 92.88C19.9519 92.88 20.2092 92.9747 20.3932 93.164C20.5772 93.3533 20.6692 93.6187 20.6692 93.96C20.6692 94.3013 20.5772 94.5667 20.3932 94.756ZM21.385 95C21.3236 95 21.2703 94.9773 21.225 94.932C21.1796 94.8867 21.157 94.8333 21.157 94.772V92.228C21.157 92.1667 21.1796 92.1133 21.225 92.068C21.2703 92.0227 21.3236 92 21.385 92H21.609C21.6703 92 21.7236 92.0227 21.769 92.068C21.8143 92.1133 21.837 92.1667 21.837 92.228V94.772C21.837 94.8333 21.8143 94.8867 21.769 94.932C21.7236 94.9773 21.6703 95 21.609 95H21.385Z" fill="white" fill-opacity="0.5"/>
</g>
<defs>
<filter id="filter0_d_433_700" x="38.625" y="78.6255" width="15.4629" height="15.4624" filterUnits="userSpaceOnUse" color-interpolation-filters="sRGB">
<feFlood flood-opacity="0" result="BackgroundImageFix"/>
<feColorMatrix in="SourceAlpha" type="matrix" values="0 0 0 0 0 0 0 0 0 0 0 0 0 0 0 0 0 0 127 0" result="hardAlpha"/>
<feOffset dx="1" dy="1"/>
<feComposite in2="hardAlpha" operator="out"/>
<feColorMatrix type="matrix" values="0 0 0 0 0.693683 0 0 0 0 0.308062 0 0 0 0 0.942308 0 0 0 1 0"/>
<feBlend mode="normal" in2="BackgroundImageFix" result="effect1_dropShadow_433_700"/>
<feBlend mode="normal" in="SourceGraphic" in2="effect1_dropShadow_433_700" result="shape"/>
</filter>
<filter id="filter1_d_433_700" x="55" y="82" width="11" height="11" filterUnits="userSpaceOnUse" color-interpolation-filters="sRGB">
<feFlood flood-opacity="0" result="BackgroundImageFix"/>
<feColorMatrix in="SourceAlpha" type="matrix" values="0 0 0 0 0 0 0 0 0 0 0 0 0 0 0 0 0 0 127 0" result="hardAlpha"/>
<feOffset dy="1"/>
<feComposite in2="hardAlpha" operator="out"/>
<feColorMatrix type="matrix" values="0 0 0 0 0.884615 0 0 0 0 0.698403 0 0 0 0 0.0212648 0 0 0 1 0"/>
<feBlend mode="normal" in2="BackgroundImageFix" result="effect1_dropShadow_433_700"/>
<feBlend mode="normal" in="SourceGraphic" in2="effect1_dropShadow_433_700" result="shape"/>
</filter>
<clipPath id="clip0_433_700">
<rect width="193" height="98" fill="white"/>
</clipPath>
<clipPath id="clip1_433_700">
<rect width="8.4554" height="8.4554" fill="white" transform="translate(43.1885 81) rotate(15)"/>
</clipPath>
</defs>
</svg>
