<svg width="200" height="200" viewBox="0 0 200 200" fill="none" xmlns="http://www.w3.org/2000/svg">
<path d="M100 29C76.0132 29 58.3241 38.2121 58.3241 61.2424C58.3241 119.325 58 181 58 181H142C142 181 141.676 137.979 141.676 61.2424C141.676 38.2121 123.987 29 100 29Z" fill="#5D4037"/>
<path d="M151.026 83.8323C149.562 89.0199 146.87 93 139.879 93C132.039 93 131 87.1416 131 80.1205C131 67.5093 151.64 57 160 57C160 76.2298 152.726 77.6609 151.026 83.8323Z" fill="#42A5F5"/>
<path d="M139.879 93C132.039 93 131 87.105 131 80.04C131 67.575 151.64 57 160 57C145.831 72.435 146.87 93 139.879 93Z" fill="#1E88E5"/>
<path d="M47.9739 83.8323C49.4381 89.0199 52.1303 93 59.1205 93C66.9609 92.7764 68 86.918 68 79.8969C68 67.5093 47.3599 57 39 57C39 76.2298 46.2736 77.6609 47.9739 83.8323Z" fill="#42A5F5"/>
<path d="M59.1205 93C66.9609 93 68 87.105 68 80.04C68 67.575 47.3599 57 39 57C53.1694 72.435 52.1303 93 59.1205 93Z" fill="#1E88E5"/>
<path d="M39.3333 172.952C45.8667 164.166 81.3333 154 81.3333 154H118.667C118.667 154 154.227 164.166 160.667 172.952C165.879 181.125 169.076 190.389 170 200H30C30.9243 190.389 34.1209 181.125 39.3333 172.952Z" fill="#42A5F5"/>
<path d="M82 114V156C82 170 100 170 100 170C100 170 118 170 118 156V114H82Z" fill="#1E88E5"/>
<path d="M100 24C58.7933 24 58 56.2 58 73.45C58 116 78.44 139 100 139C121.56 139 142 116 142 73.45C142 56.2 141.207 24 100 24Z" fill="#42A5F5"/>
<path d="M100 24C58.499 24 53 51.8973 53 69.3331C53 80.3991 65.079 84.4442 81.2 84.4442C87.028 84.4442 92.95 92.1624 92.95 98.3928V115.131C95.0935 116.355 97.5249 117 100 117C102.475 117 104.907 116.355 107.05 115.131V98.3928C107.05 92.1624 112.972 84.4442 118.8 84.4442C134.921 84.4442 147 80.3991 147 69.3331C147 51.8973 141.501 24 100 24Z" fill="#66B6F7"/>
<path d="M94 114C95.8242 115.317 97.8936 116.01 100 116.01C102.106 116.01 104.176 115.317 106 114C106 114 103.56 121 100 121C96.44 121 94 114 94 114Z" fill="#1E88E5"/>
<path d="M128 89.3338C128 91.6323 127.051 93.8366 125.363 95.4618C123.676 97.087 121.387 98 119 98C116.613 98 114.324 97.087 112.637 95.4618C110.949 93.8366 110 91.6323 110 89.3338C112.344 86.8712 115.548 85.3281 119 85C122.452 85.3281 125.656 86.8712 128 89.3338Z" fill="#FFC107"/>
<path d="M114 89C114 90.0609 114.421 91.0783 115.172 91.8284C115.922 92.5786 116.939 93 118 93C119.061 93 120.078 92.5786 120.828 91.8284C121.579 91.0783 122 90.0609 122 89C122 87.9391 121.579 86.9217 120.828 86.1716C120.078 85.4214 119.061 85 118 85C116.939 85 115.922 85.4214 115.172 86.1716C114.421 86.9217 114 87.9391 114 89Z" fill="#263238"/>
<path d="M90 89.3338C89.9996 91.6323 89.0513 93.8366 87.3635 95.4618C85.6757 97.087 83.3867 98 81 98C78.6133 98 76.3243 97.087 74.6365 95.4618C72.9487 93.8366 72.0004 91.6323 72 89.3338C74.3436 86.8712 77.5483 85.3281 81 85C84.4517 85.3281 87.6564 86.8712 90 89.3338Z" fill="#FFC107"/>
<path d="M78 89C78 90.0609 78.4214 91.0783 79.1716 91.8284C79.9217 92.5786 80.9391 93 82 93C83.0609 93 84.0783 92.5786 84.8284 91.8284C85.5786 91.0783 86 90.0609 86 89C86 87.9391 85.5786 86.9217 84.8284 86.1716C84.0783 85.4214 83.0609 85 82 85C80.9391 85 79.9217 85.4214 79.1716 86.1716C78.4214 86.9217 78 87.9391 78 89Z" fill="#263238"/>
<path d="M98.9809 36.0289C98.6545 50.6688 84.06 50.0161 83.0808 77.9904L76.5063 77.3376C78.3714 62.045 96.2764 44.701 95.8102 34.8167C95.3439 24.9325 99.3073 21.3891 98.9809 36.0289ZM86.3913 30.1543C86.3913 48.0579 63.4971 61.3923 60 79.8553C61.6433 80.7537 63.3785 81.4728 65.1757 82C70.0716 52.5804 90.2148 49.0836 90.448 31.2733C90.5094 28.8381 90.3377 26.4025 89.9351 24C88.9559 24 87.9301 24 86.9509 24.4196C86.5578 26.3054 86.3702 28.2282 86.3913 30.1543Z" fill="#90CAF9"/>
<path d="M77.8214 31.2733C75.7612 44.701 65.3669 49.4566 58.016 57.336C54.8321 60.7862 54.1298 74.074 56.0963 74.6334C60.7784 47.7315 81.5671 49.1768 81.8012 31.3666C81.848 27.963 78.1491 28.9887 77.8214 31.2733ZM100.857 36.0289C101.185 50.6688 115.84 50.0161 116.823 77.9904L123.425 77.3376C121.552 62.045 103.573 44.701 104.041 34.8167C104.509 24.9325 100.53 21.3891 100.857 36.0289ZM113.499 30.1543C113.499 48.0579 136.488 61.3923 140 79.8553C138.35 80.7537 136.607 81.4728 134.803 82C129.887 52.5804 109.66 49.0836 109.379 31.2733C109.317 28.8381 109.49 26.4025 109.894 24C110.877 24 111.907 24 112.89 24.4196C113.301 26.3037 113.505 28.2265 113.499 30.1543Z" fill="#90CAF9"/>
<path d="M121.96 32.0792C124.149 46.2477 135.935 50.5398 143.062 59.4932C145.578 62.5391 145.531 74.4462 143.575 75C138.916 48.3707 118.233 49.8014 118 32.1716C117.954 28.8025 121.634 29.8178 121.96 32.0792Z" fill="#90CAF9"/>
<path d="M135 76.6C129.749 77.9028 124.351 78.7075 118.9 79H109.7C110.795 77.7801 112.189 76.788 113.78 76.0961C115.372 75.4041 117.121 75.0296 118.9 75C124.315 75.0643 129.708 75.6003 135 76.6ZM66 76.6C71.2514 77.9028 76.6495 78.7075 82.1 79H91.3C90.2053 77.7801 88.8113 76.788 87.2198 76.0961C85.6282 75.4041 83.8791 75.0296 82.1 75C76.6853 75.0643 71.2917 75.6003 66 76.6Z" fill="#37474F"/>
<path d="M100 49C98.3823 57.4817 97.3801 66.0512 97 74.6528C97.1547 83.829 98.1582 92.977 100 102C101.842 92.977 102.845 83.829 103 74.6528C102.652 66.0491 101.649 57.4777 100 49Z" fill="#90CAF9"/>
<path d="M157 169.422C155.054 168.133 153.03 166.962 150.941 165.915C149.17 175.144 138.917 186.771 111.652 193C125.54 193 147.772 187.925 157 169.422ZM139.895 161.025C137.285 160.056 135.002 159.133 132.625 158.395C130.248 157.656 125.634 179.158 106.991 183.772C106.991 183.772 131.693 181.834 139.895 161.025ZM43 169.422C44.9464 168.133 46.9697 166.962 49.0589 165.915C50.8299 175.144 61.0834 186.771 88.3483 193C74.4595 193 52.2281 187.925 43 169.422ZM60.1047 161.025C62.5748 160.056 64.7653 159.133 67.3287 158.302C69.8921 157.472 74.3197 179.066 92.9624 183.68C93.009 183.772 68.3074 181.834 60.1047 161.025ZM113.982 103.026C123.042 103.128 131.967 100.851 139.849 96.4278C140.501 93.1056 140.967 89.6451 141.34 86C136.167 92.8288 126.379 103.026 113.982 103.026ZM123.303 112.254C127.518 111.909 131.696 111.215 135.794 110.178C136.54 108.332 137.192 106.394 137.798 104.41C133.396 107.736 128.508 110.381 123.303 112.254ZM58.6599 86C59.0327 89.6451 59.4988 93.1056 60.1513 96.4278C68.0331 100.851 76.9583 103.128 86.018 103.026C73.6206 103.026 63.8332 92.8288 58.6599 86ZM64.206 110.178C68.3035 111.215 72.4818 111.909 76.6966 112.254C71.4917 110.381 66.6043 107.736 62.202 104.41C62.7146 106.394 63.4603 108.332 64.206 110.178Z" fill="#1E88E5"/>
<path d="M100 42L58 51.25V60.5C68.7805 58.2825 79.6909 56.7377 90.6667 55.875C100 55.875 95.3333 60.5 95.3333 65.125C96.1419 69.9647 97.7168 74.6474 100 79C102.283 74.6474 103.858 69.9647 104.667 65.125C104.667 60.5 100 55.875 109.333 55.875C120.309 56.7377 131.219 58.2825 142 60.5V51.25L100 42Z" fill="#FF6F00"/>
<path d="M100 15C67.805 15 53 38.125 53 61.25V200H57.7C57.7 200 62.4 86.595 62.4 75.125C62.4 28.875 76.5 33.5 100 33.5C123.5 33.5 137.6 28.875 137.6 75.125C137.6 93.1163 142.3 200 142.3 200H147V61.25C147 38.125 132.195 15 100 15Z" fill="#795548"/>
<path d="M86 124C95.1674 126.286 104.833 126.286 114 124C110.365 127.601 105.34 129.755 100 130C94.6595 129.755 89.6352 127.601 86 124Z" fill="#1976D2"/>
<path d="M91 40.5C91 40.5657 91.0517 40.6307 91.1522 40.6913C91.2527 40.752 91.4001 40.8071 91.5858 40.8536C91.7715 40.9 91.992 40.9368 92.2346 40.9619C92.4773 40.9871 92.7374 41 93 41C93.2626 41 93.5227 40.9871 93.7654 40.9619C94.008 40.9368 94.2285 40.9 94.4142 40.8536C94.5999 40.8071 94.7473 40.752 94.8478 40.6913C94.9483 40.6307 95 40.5657 95 40.5C95 40.4343 94.9483 40.3693 94.8478 40.3087C94.7473 40.248 94.5999 40.1929 94.4142 40.1464C94.2285 40.1 94.008 40.0632 93.7654 40.0381C93.5227 40.0129 93.2626 40 93 40C92.7374 40 92.4773 40.0129 92.2346 40.0381C91.992 40.0632 91.7715 40.1 91.5858 40.1464C91.4001 40.1929 91.2527 40.248 91.1522 40.3087C91.0517 40.3693 91 40.4343 91 40.5Z" fill="#E3F2FD"/>
<path d="M91 73C91 73.1313 91.0517 73.2614 91.1522 73.3827C91.2527 73.504 91.4001 73.6142 91.5858 73.7071C91.7715 73.8 91.992 73.8736 92.2346 73.9239C92.4773 73.9741 92.7374 74 93 74C93.2626 74 93.5227 73.9741 93.7654 73.9239C94.008 73.8736 94.2285 73.8 94.4142 73.7071C94.5999 73.6142 94.7473 73.504 94.8478 73.3827C94.9483 73.2614 95 73.1313 95 73C95 72.8687 94.9483 72.7386 94.8478 72.6173C94.7473 72.496 94.5999 72.3857 94.4142 72.2929C94.2285 72.2 94.008 72.1264 93.7654 72.0761C93.5227 72.0259 93.2626 72 93 72C92.7374 72 92.4773 72.0259 92.2346 72.0761C91.992 72.1264 91.7715 72.2 91.5858 72.2929C91.4001 72.3857 91.2527 72.496 91.1522 72.6173C91.0517 72.7386 91 72.8687 91 73Z" fill="#E3F2FD"/>
<path d="M91 58.5C91 58.5657 91.0517 58.6307 91.1522 58.6913C91.2527 58.752 91.4001 58.8071 91.5858 58.8536C91.7715 58.9 91.992 58.9368 92.2346 58.9619C92.4773 58.9871 92.7374 59 93 59C93.2626 59 93.5227 58.9871 93.7654 58.9619C94.008 58.9368 94.2285 58.9 94.4142 58.8536C94.5999 58.8071 94.7473 58.752 94.8478 58.6913C94.9483 58.6307 95 58.5657 95 58.5C95 58.4343 94.9483 58.3693 94.8478 58.3087C94.7473 58.248 94.5999 58.1929 94.4142 58.1464C94.2285 58.1 94.008 58.0632 93.7654 58.0381C93.5227 58.0129 93.2626 58 93 58C92.7374 58 92.4773 58.0129 92.2346 58.0381C91.992 58.0632 91.7715 58.1 91.5858 58.1464C91.4001 58.1929 91.2527 58.248 91.1522 58.3087C91.0517 58.3693 91 58.4343 91 58.5Z" fill="#E3F2FD"/>
<path d="M79 63C79 63.2652 79.0527 63.5196 79.1464 63.7071C79.2402 63.8946 79.3674 64 79.5 64C79.6326 64 79.7598 63.8946 79.8536 63.7071C79.9473 63.5196 80 63.2652 80 63C80 62.7348 79.9473 62.4804 79.8536 62.2929C79.7598 62.1054 79.6326 62 79.5 62C79.3674 62 79.2402 62.1054 79.1464 62.2929C79.0527 62.4804 79 62.7348 79 63Z" fill="#E3F2FD"/>
<path d="M73 73C73 73.2652 73.1054 73.5196 73.2929 73.7071C73.4804 73.8946 73.7348 74 74 74C74.2652 74 74.5196 73.8946 74.7071 73.7071C74.8946 73.5196 75 73.2652 75 73C75 72.7348 74.8946 72.4804 74.7071 72.2929C74.5196 72.1054 74.2652 72 74 72C73.7348 72 73.4804 72.1054 73.2929 72.2929C73.1054 72.4804 73 72.7348 73 73Z" fill="#E3F2FD"/>
<path d="M64 86.5C64 86.8978 64.158 87.2794 64.4393 87.5607C64.7206 87.842 65.1022 88 65.5 88C65.8978 88 66.2794 87.842 66.5607 87.5607C66.842 87.2794 67 86.8978 67 86.5C67 86.1022 66.842 85.7206 66.5607 85.4393C66.2794 85.158 65.8978 85 65.5 85C65.1022 85 64.7206 85.158 64.4393 85.4393C64.158 85.7206 64 86.1022 64 86.5Z" fill="#E3F2FD"/>
<path d="M69 95C69 95.2652 69.1054 95.5196 69.2929 95.7071C69.4804 95.8946 69.7348 96 70 96C70.2652 96 70.5196 95.8946 70.7071 95.7071C70.8946 95.5196 71 95.2652 71 95C71 94.7348 70.8946 94.4804 70.7071 94.2929C70.5196 94.1054 70.2652 94 70 94C69.7348 94 69.4804 94.1054 69.2929 94.2929C69.1054 94.4804 69 94.7348 69 95Z" fill="#E3F2FD"/>
<path d="M87 100.5C87 100.898 87.1054 101.279 87.2929 101.561C87.4804 101.842 87.7348 102 88 102C88.2652 102 88.5196 101.842 88.7071 101.561C88.8946 101.279 89 100.898 89 100.5C89 100.102 88.8946 99.7206 88.7071 99.4393C88.5196 99.158 88.2652 99 88 99C87.7348 99 87.4804 99.158 87.2929 99.4393C87.1054 99.7206 87 100.102 87 100.5Z" fill="#E3F2FD"/>
<path d="M91 86.5C91 86.697 91.0517 86.892 91.1522 87.074C91.2527 87.256 91.4001 87.4214 91.5858 87.5607C91.7715 87.6999 91.992 87.8104 92.2346 87.8858C92.4773 87.9612 92.7374 88 93 88C93.2626 88 93.5227 87.9612 93.7654 87.8858C94.008 87.8104 94.2285 87.6999 94.4142 87.5607C94.5999 87.4214 94.7473 87.256 94.8478 87.074C94.9483 86.892 95 86.697 95 86.5C95 86.303 94.9483 86.108 94.8478 85.926C94.7473 85.744 94.5999 85.5786 94.4142 85.4393C94.2285 85.3 94.008 85.1896 93.7654 85.1142C93.5227 85.0388 93.2626 85 93 85C92.7374 85 92.4773 85.0388 92.2346 85.1142C91.992 85.1896 91.7715 85.3 91.5858 85.4393C91.4001 85.5786 91.2527 85.744 91.1522 85.926C91.0517 86.108 91 86.303 91 86.5Z" fill="#E3F2FD"/>
<path d="M64 63C64 63.2652 64.158 63.5196 64.4393 63.7071C64.7206 63.8946 65.1022 64 65.5 64C65.8978 64 66.2794 63.8946 66.5607 63.7071C66.842 63.5196 67 63.2652 67 63C67 62.7348 66.842 62.4804 66.5607 62.2929C66.2794 62.1054 65.8978 62 65.5 62C65.1022 62 64.7206 62.1054 64.4393 62.2929C64.158 62.4804 64 62.7348 64 63Z" fill="#E3F2FD"/>
<path d="M105 40.5C105 40.6326 105.211 40.7598 105.586 40.8536C105.961 40.9473 106.47 41 107 41C107.53 41 108.039 40.9473 108.414 40.8536C108.789 40.7598 109 40.6326 109 40.5C109 40.3674 108.789 40.2402 108.414 40.1464C108.039 40.0527 107.53 40 107 40C106.47 40 105.961 40.0527 105.586 40.1464C105.211 40.2402 105 40.3674 105 40.5Z" fill="#E3F2FD"/>
<path d="M105 73C105 73.2652 105.211 73.5196 105.586 73.7071C105.961 73.8946 106.47 74 107 74C107.53 74 108.039 73.8946 108.414 73.7071C108.789 73.5196 109 73.2652 109 73C109 72.7348 108.789 72.4804 108.414 72.2929C108.039 72.1054 107.53 72 107 72C106.47 72 105.961 72.1054 105.586 72.2929C105.211 72.4804 105 72.7348 105 73Z" fill="#E3F2FD"/>
<path d="M105 58.5C105 58.6326 105.211 58.7598 105.586 58.8536C105.961 58.9473 106.47 59 107 59C107.53 59 108.039 58.9473 108.414 58.8536C108.789 58.7598 109 58.6326 109 58.5C109 58.3674 108.789 58.2402 108.414 58.1464C108.039 58.0527 107.53 58 107 58C106.47 58 105.961 58.0527 105.586 58.1464C105.211 58.2402 105 58.3674 105 58.5Z" fill="#E3F2FD"/>
<path d="M120 63C120 63.1313 120.013 63.2614 120.038 63.3827C120.063 63.504 120.1 63.6142 120.146 63.7071C120.193 63.8 120.248 63.8736 120.309 63.9239C120.369 63.9741 120.434 64 120.5 64C120.566 64 120.631 63.9741 120.691 63.9239C120.752 63.8736 120.807 63.8 120.854 63.7071C120.9 63.6142 120.937 63.504 120.962 63.3827C120.987 63.2614 121 63.1313 121 63C121 62.8687 120.987 62.7386 120.962 62.6173C120.937 62.496 120.9 62.3858 120.854 62.2929C120.807 62.2 120.752 62.1264 120.691 62.0761C120.631 62.0259 120.566 62 120.5 62C120.434 62 120.369 62.0259 120.309 62.0761C120.248 62.1264 120.193 62.2 120.146 62.2929C120.1 62.3858 120.063 62.496 120.038 62.6173C120.013 62.7386 120 62.8687 120 63Z" fill="#E3F2FD"/>
<path d="M125 73C125 73.2652 125.105 73.5196 125.293 73.7071C125.48 73.8946 125.735 74 126 74C126.265 74 126.52 73.8946 126.707 73.7071C126.895 73.5196 127 73.2652 127 73C127 72.7348 126.895 72.4804 126.707 72.2929C126.52 72.1054 126.265 72 126 72C125.735 72 125.48 72.1054 125.293 72.2929C125.105 72.4804 125 72.7348 125 73Z" fill="#E3F2FD"/>
<path d="M133 86.5C133 86.8978 133.158 87.2794 133.439 87.5607C133.721 87.842 134.102 88 134.5 88C134.898 88 135.279 87.842 135.561 87.5607C135.842 87.2794 136 86.8978 136 86.5C136 86.1022 135.842 85.7206 135.561 85.4393C135.279 85.158 134.898 85 134.5 85C134.102 85 133.721 85.158 133.439 85.4393C133.158 85.7206 133 86.1022 133 86.5Z" fill="#E3F2FD"/>
<path d="M129 95C129 95.2652 129.105 95.5196 129.293 95.7071C129.48 95.8946 129.735 96 130 96C130.265 96 130.52 95.8946 130.707 95.7071C130.895 95.5196 131 95.2652 131 95C131 94.7348 130.895 94.4804 130.707 94.2929C130.52 94.1054 130.265 94 130 94C129.735 94 129.48 94.1054 129.293 94.2929C129.105 94.4804 129 94.7348 129 95Z" fill="#E3F2FD"/>
<path d="M111 100.5C111 100.898 111.105 101.279 111.293 101.561C111.48 101.842 111.735 102 112 102C112.265 102 112.52 101.842 112.707 101.561C112.895 101.279 113 100.898 113 100.5C113 100.102 112.895 99.7206 112.707 99.4393C112.52 99.158 112.265 99 112 99C111.735 99 111.48 99.158 111.293 99.4393C111.105 99.7206 111 100.102 111 100.5Z" fill="#E3F2FD"/>
<path d="M105 86.5C105 86.8978 105.211 87.2794 105.586 87.5607C105.961 87.842 106.47 88 107 88C107.53 88 108.039 87.842 108.414 87.5607C108.789 87.2794 109 86.8978 109 86.5C109 86.1022 108.789 85.7206 108.414 85.4393C108.039 85.158 107.53 85 107 85C106.47 85 105.961 85.158 105.586 85.4393C105.211 85.7206 105 86.1022 105 86.5Z" fill="#E3F2FD"/>
<path d="M133 63C133 63.2652 133.158 63.5196 133.439 63.7071C133.721 63.8946 134.102 64 134.5 64C134.898 64 135.279 63.8946 135.561 63.7071C135.842 63.5196 136 63.2652 136 63C136 62.7348 135.842 62.4804 135.561 62.2929C135.279 62.1054 134.898 62 134.5 62C134.102 62 133.721 62.1054 133.439 62.2929C133.158 62.4804 133 62.7348 133 63Z" fill="#E3F2FD"/>
</svg>
