<svg width="200" height="200" viewBox="0 0 200 200" fill="none" xmlns="http://www.w3.org/2000/svg">
<path d="M78.833 164.078C77.9837 164.078 77.2405 163.487 77.0585 162.622L68.8686 121.991C68.8218 121.759 68.8211 121.52 68.8667 121.288C68.9123 121.055 69.0031 120.834 69.1341 120.637C69.2651 120.44 69.4336 120.271 69.6301 120.139C69.8265 120.006 70.0471 119.914 70.2791 119.868C70.5111 119.821 70.7501 119.82 70.9824 119.866C71.2147 119.911 71.4357 120.002 71.6329 120.133C71.83 120.264 71.9995 120.433 72.1315 120.629C72.2635 120.826 72.3556 121.046 72.4024 121.278L80.6075 161.909C80.8047 162.895 80.1677 163.835 79.197 164.033C79.0757 164.063 78.9543 164.078 78.833 164.078Z" fill="#008941"/>
<path d="M78.7728 164.078C78.6515 164.078 78.5302 164.063 78.4088 164.048C77.423 163.851 76.8012 162.895 76.9983 161.924L85.2034 121.293C85.4006 120.307 86.3561 119.686 87.3268 119.883C88.3126 120.08 88.9344 121.035 88.7372 122.006L80.5322 162.637C80.3653 163.487 79.607 164.078 78.7728 164.078ZM120.784 164.078C119.935 164.078 119.192 163.487 119.01 162.622L110.82 121.991C110.773 121.759 110.772 121.52 110.818 121.288C110.863 121.055 110.954 120.834 111.085 120.637C111.216 120.44 111.385 120.271 111.581 120.139C111.778 120.006 111.998 119.914 112.23 119.868C112.462 119.821 112.701 119.82 112.933 119.866C113.166 119.911 113.387 120.002 113.584 120.133C113.781 120.264 113.951 120.433 114.083 120.629C114.215 120.826 114.307 121.046 114.354 121.278L122.559 161.909C122.756 162.895 122.119 163.835 121.148 164.033C121.027 164.063 120.905 164.078 120.784 164.078Z" fill="#008941"/>
<path d="M120.723 164.077C120.602 164.077 120.48 164.062 120.359 164.047C119.373 163.85 118.751 162.894 118.949 161.924L127.154 121.293C127.351 120.307 128.306 119.685 129.277 119.882C130.263 120.079 130.885 121.035 130.687 122.005L122.482 162.637C122.316 163.486 121.572 164.077 120.723 164.077Z" fill="#008941"/>
<path d="M115.915 130.256C125.439 120.413 134.797 58.3216 132.158 44.2925C127.745 20.6631 113.23 9.0455 99.626 9C127.214 9.0455 156.622 20.6631 165.6 44.2925C170.924 58.3216 151.951 120.413 132.644 130.256C122.937 135.201 111.289 137.764 99.626 137.87C105.389 137.779 111.122 135.216 115.915 130.256Z" fill="#B6CBFF"/>
<path d="M132.417 57.3972C132.447 57.382 132.493 57.3668 132.523 57.3517L132.614 57.473C132.614 57.473 133.024 57.2607 133.691 56.836C142.26 52.8624 148.509 44.8089 149.858 35.1934C153.893 39.7585 159.383 43.0345 165.616 44.3084C168.635 52.3012 163.812 75.8397 155.515 96.451L141.289 106.734L127.988 93.357L127.761 93.4784C130.142 80.8295 131.856 67.4222 132.417 57.3972Z" fill="#FCE665"/>
<path d="M165.616 44.3077C159.382 43.0489 153.892 39.7577 149.858 35.1926C148.493 44.8082 142.259 52.8616 133.69 56.8352C133.023 57.2599 132.613 57.4722 132.613 57.4722L132.522 57.3509C132.492 57.3661 132.446 57.3812 132.416 57.3964C132.735 51.6786 132.689 47.068 132.173 44.3077C127.745 20.6631 113.23 9.0455 99.626 9C127.214 9.0455 156.637 20.6631 165.616 44.3077Z" fill="#FFF1B8"/>
<path d="M155.515 96.4509C155.53 96.3903 155.561 96.3296 155.591 96.2689C155.561 96.3296 155.545 96.3903 155.515 96.4509ZM115.915 130.257C120.283 125.753 124.606 110.268 127.76 93.4631L127.988 93.3418L141.289 106.719L155.515 96.4358C149.236 112.057 140.986 126.011 132.659 130.242C122.953 135.186 111.305 137.749 99.6416 137.856C105.39 137.78 111.123 135.217 115.915 130.257Z" fill="#FFCE00"/>
<path d="M153.696 44.2933C153.468 43.5653 153.225 42.8373 152.968 42.1245C152.816 41.715 152.649 41.3206 152.497 40.9263C152.376 40.623 152.27 40.3196 152.149 40.0315C151.921 39.5007 151.678 38.985 151.436 38.4693C151.36 38.3177 151.299 38.166 151.239 38.0143C150.95 37.4228 150.647 36.8313 150.344 36.255C150.313 36.1943 150.283 36.1337 150.253 36.0579C150.131 35.8304 149.995 35.6029 149.858 35.3754C149.874 35.3147 149.874 35.254 149.889 35.1934C153.923 39.7585 159.413 43.0345 165.647 44.3084C167.543 49.2982 166.36 60.3698 163.19 73.0035L163.144 73.1704C162.993 73.7467 162.856 74.323 162.689 74.9145L162.553 75.415C162.432 75.8852 162.295 76.3705 162.159 76.8407C162.128 76.9772 162.083 77.0985 162.052 77.235C161.734 78.4028 161.385 79.5706 161.036 80.7385C160.991 80.875 160.945 81.0115 160.915 81.1631C160.763 81.6788 160.596 82.1944 160.445 82.7101C160.384 82.9073 160.308 83.1196 160.248 83.3168C159.899 84.4239 159.535 85.5311 159.156 86.6534C159.004 87.1084 158.837 87.5634 158.685 88.0184C158.61 88.2156 158.549 88.4279 158.473 88.6251C158.352 88.9891 158.215 89.3379 158.094 89.7019C157.988 90.0052 157.882 90.2934 157.775 90.5967C157.063 92.5684 156.319 94.5248 155.546 96.451L141.881 106.324C150.738 83.9993 156.592 53.6055 153.696 44.2933Z" fill="#FFA300"/>
<path d="M165.616 44.3077C159.382 43.0489 153.892 39.7577 149.858 35.1926C149.842 35.2533 149.842 35.3139 149.827 35.3746C139.848 17.7359 119.176 9.0455 99.626 9C127.214 9.0455 156.637 20.6631 165.616 44.3077Z" fill="#FFCE00"/>
<path d="M126.698 130.257C132.037 126.935 137.345 117.669 141.865 106.309L155.53 96.4355C149.251 112.057 141 126.01 132.674 130.242C122.967 135.186 111.319 137.749 99.6562 137.855C109.196 137.78 118.736 135.216 126.698 130.257Z" fill="#F78700"/>
<path d="M67.3973 44.2925C66.8816 47.068 66.821 51.7241 67.1546 57.4722C67.8826 57.4571 68.6713 57.4722 69.5358 57.5632C93.2562 59.8079 99.9295 41.9417 99.9295 41.9417V9C86.3251 9.0455 71.8108 20.6631 67.3973 44.2925Z" fill="#FADCDC"/>
<path d="M83.6415 130.256C88.4341 135.2 94.1671 137.763 99.9303 137.869V110.949L71.7812 93.3555C74.9359 110.205 79.2735 125.736 83.6415 130.256Z" fill="#FFBCC5"/>
<path d="M132.462 57.4719C131.734 57.4568 130.946 57.4719 130.081 57.5629C106.361 59.8076 99.6875 41.9414 99.6875 41.9414V110.949L127.837 93.356C130.203 80.7677 131.901 67.4667 132.462 57.4719Z" fill="#FF9797"/>
<path d="M132.25 44.2925C132.766 47.068 132.826 51.7241 132.493 57.4722C131.765 57.4571 130.976 57.4722 130.112 57.5632C106.391 59.8079 99.7178 41.9417 99.7178 41.9417V9C113.322 9.0455 127.821 20.6631 132.25 44.2925Z" fill="#FFBCC5"/>
<path d="M116.007 130.256C111.214 135.2 105.481 137.763 99.7178 137.869V110.949L127.867 93.3555C124.712 110.205 120.375 125.736 116.007 130.256Z" fill="#FF7166"/>
<path d="M66.9434 57.4719C67.6714 57.4568 68.46 57.4719 69.3245 57.5629C93.045 59.8076 99.7182 41.9414 99.7182 41.9414V110.949L71.5692 93.356C69.2032 80.7677 67.5045 67.4667 66.9434 57.4719Z" fill="#FFE3E3"/>
<path d="M83.6416 130.256C74.117 120.413 64.7593 58.3216 67.3982 44.2925C71.8117 20.6631 86.3261 9.0455 99.9304 9C72.3425 9.0455 42.9346 20.6631 33.956 44.2925C28.6326 58.3216 47.6059 120.413 66.9129 130.256C76.6195 135.201 88.2674 137.764 99.9304 137.87C94.1672 137.779 88.4342 135.216 83.6416 130.256Z" fill="#B6CBFF"/>
<path d="M67.1399 57.3972C67.1096 57.382 67.0641 57.3668 67.0338 57.3517L66.9428 57.473C66.9428 57.473 66.5333 57.2607 65.866 56.836C57.2969 52.8624 51.0482 44.8089 49.6984 35.1934C45.5739 39.861 40.0429 43.0603 33.9404 44.3084C30.9223 52.3012 35.7452 75.8397 44.0413 96.451L58.2675 106.734L71.5686 93.357L71.7961 93.4784C69.4149 80.8295 67.7011 67.4222 67.1399 57.3972Z" fill="#FFA300"/>
<path d="M33.9404 44.3077C40.1739 43.0489 45.6642 39.7577 49.6985 35.1926C51.0634 44.8082 57.2969 52.8616 65.866 56.8352C66.5333 57.2599 66.9428 57.4722 66.9428 57.4722L67.0338 57.3509C67.0641 57.3661 67.1096 57.3812 67.14 57.3964C66.8215 51.6786 66.867 47.068 67.3826 44.3077C71.8113 20.6631 86.3256 9.0455 99.93 9C72.3421 9.0455 42.919 20.6631 33.9404 44.3077Z" fill="#FFCE00"/>
<path d="M44.0417 96.4515C44.0229 96.3883 43.9975 96.3273 43.9658 96.2695C43.9962 96.3302 44.0113 96.3909 44.0417 96.4515Z" fill="#82AAFF"/>
<path d="M83.6408 130.257C79.2729 125.753 74.9504 110.268 71.7958 93.4631L71.5683 93.3418L58.2672 106.719L44.041 96.4358C50.32 112.057 58.5706 126.011 66.897 130.242C76.6036 135.186 88.2515 137.749 99.9145 137.856C94.1664 137.78 88.4335 135.217 83.6408 130.257Z" fill="#F78700"/>
<path d="M45.8616 44.2933C46.0891 43.5653 46.3317 42.8373 46.5896 42.1245C46.7412 41.715 46.9081 41.3206 47.0597 40.9263C47.1811 40.623 47.2872 40.3196 47.4086 40.0315C47.636 39.5007 47.8787 38.985 48.1214 38.4693C48.1972 38.3177 48.2579 38.166 48.3185 38.0143C48.6067 37.4228 48.91 36.8313 49.2134 36.255C49.2437 36.1943 49.274 36.1337 49.3044 36.0579C49.4257 35.8304 49.5622 35.6029 49.6987 35.3754C49.6835 35.3147 49.6835 35.254 49.6684 35.1934C45.5438 39.861 40.0129 43.0603 33.9103 44.3084C32.0145 49.2982 33.1975 60.3698 36.3673 73.0035L36.4128 73.1704C36.5645 73.7467 36.701 74.323 36.8678 74.9145L37.0043 75.415C37.1256 75.8852 37.2621 76.3705 37.3986 76.8407C37.429 76.9772 37.4745 77.0985 37.5048 77.235C37.8233 78.4028 38.1721 79.5706 38.521 80.7385C38.5665 80.875 38.612 81.0115 38.6423 81.1631C38.794 81.6788 38.9608 82.1944 39.1125 82.7101C39.1731 82.9073 39.249 83.1196 39.3096 83.3168C39.6585 84.4239 40.0224 85.5311 40.4016 86.6534C40.5533 87.1084 40.7201 87.5634 40.8718 88.0184C40.9476 88.2156 41.0083 88.4279 41.0841 88.6251C41.2054 88.9891 41.3419 89.3379 41.4633 89.7019C41.5694 90.0052 41.6756 90.2934 41.7818 90.5967C42.4946 92.5684 43.2378 94.5248 44.0112 96.451L57.6763 106.324C48.819 83.9993 42.9648 53.6055 45.8616 44.2933Z" fill="#FCE665"/>
<path d="M33.9404 44.3077C40.1739 43.0489 45.6642 39.7577 49.6985 35.1926C49.7136 35.2533 49.7136 35.3139 49.7288 35.3746C59.7084 17.7359 80.3804 9.0455 99.93 9C72.3421 9.0455 42.919 20.6631 33.9404 44.3077Z" fill="#FFF1B8"/>
<path d="M72.8579 130.257C67.5193 126.935 62.211 117.669 57.6914 106.309L44.0264 96.4355C50.3053 112.057 58.5559 126.01 66.8823 130.242C76.5889 135.186 88.2368 137.749 99.8999 137.855C90.3601 137.78 80.8204 135.216 72.8579 130.257Z" fill="#FFCE00"/>
<path d="M100.142 153.523C108.635 153.523 117.144 153.508 125.637 153.538C126.835 153.538 128.048 153.675 129.247 153.811C130.657 153.993 130.885 154.509 130.126 155.707C129.201 157.148 128.2 158.543 127.351 160.014C126.304 161.834 125.834 163.806 125.895 165.929C126.001 169.994 125.925 174.058 126.107 178.108C126.198 180.095 126.774 182.066 127.002 184.053C127.366 187.238 126.062 188.967 122.846 189.907C119.419 190.908 115.915 191.136 112.381 190.893C103.418 190.271 94.4697 190.681 85.5062 190.893C83.0341 190.954 80.5013 190.62 78.0898 190.074C73.6612 189.088 72.281 187.147 73.2972 182.87C74.7077 176.986 74.3285 171.055 74.3133 165.141C74.2982 162.471 73.2517 159.999 71.8109 157.709C71.4317 157.102 70.9767 156.526 70.5975 155.919C69.6572 154.463 69.8999 153.932 71.6289 153.72C72.6905 153.599 73.7522 153.508 74.8138 153.508C83.2313 153.523 91.6942 153.523 100.142 153.523Z" fill="#05A336"/>
<path d="M129.247 153.81C128.048 153.658 126.85 153.537 125.637 153.537C122.877 153.537 120.116 153.521 117.356 153.521C117.113 154.492 117.022 155.508 117.038 156.555C117.144 160.619 117.068 164.684 117.25 168.734C117.341 170.72 117.917 172.692 118.145 174.679C118.509 177.864 117.204 179.593 113.989 180.533C110.561 181.534 107.058 181.762 103.524 181.519C94.5608 180.897 85.6125 181.307 76.6491 181.519C75.6329 181.549 74.6016 181.489 73.5703 181.398C73.4793 181.883 73.3731 182.383 73.2518 182.869C72.2356 187.146 73.6158 189.072 78.0444 190.073C80.4559 190.619 82.9887 190.952 85.4608 190.892C94.4243 190.695 103.373 190.285 112.336 190.892C115.87 191.134 119.388 190.907 122.801 189.906C126.016 188.966 127.32 187.237 126.956 184.052C126.729 182.065 126.153 180.093 126.062 178.106C125.88 174.057 125.955 169.992 125.849 165.928C125.789 163.804 126.274 161.833 127.305 160.013C128.155 158.526 129.171 157.146 130.081 155.705C130.885 154.507 130.657 153.992 129.247 153.81Z" fill="#05A336"/>
</svg>
