<svg width="200" height="200" viewBox="0 0 200 200" fill="none" xmlns="http://www.w3.org/2000/svg">
<path d="M78.834 164.078C77.9847 164.078 77.2415 163.487 77.0595 162.622L68.8696 121.991C68.8228 121.759 68.8221 121.52 68.8677 121.288C68.9132 121.055 69.0041 120.834 69.1351 120.637C69.266 120.44 69.4346 120.271 69.631 120.139C69.8275 120.006 70.048 119.914 70.2801 119.868C70.5121 119.821 70.7511 119.82 70.9834 119.866C71.2156 119.911 71.4367 120.002 71.6338 120.133C71.831 120.264 72.0004 120.433 72.1325 120.629C72.2645 120.826 72.3566 121.046 72.4034 121.278L80.6085 161.909C80.8056 162.895 80.1686 163.835 79.198 164.033C79.0767 164.063 78.9553 164.078 78.834 164.078Z" fill="#1E88E5"/>
<path d="M78.7733 164.078C78.652 164.078 78.5307 164.063 78.4093 164.048C77.4235 163.851 76.8017 162.895 76.9988 161.924L85.2039 121.293C85.4011 120.307 86.3566 119.686 87.3272 119.883C88.3131 120.08 88.9349 121.035 88.7377 122.006L80.5326 162.637C80.3658 163.487 79.6075 164.078 78.7733 164.078ZM120.785 164.078C119.935 164.078 119.192 163.487 119.01 162.622L110.82 121.991C110.773 121.759 110.773 121.52 110.818 121.288C110.864 121.055 110.955 120.834 111.086 120.637C111.217 120.44 111.385 120.271 111.582 120.139C111.778 120.006 111.999 119.914 112.231 119.868C112.463 119.821 112.702 119.82 112.934 119.866C113.166 119.911 113.387 120.002 113.584 120.133C113.782 120.264 113.951 120.433 114.083 120.629C114.215 120.826 114.307 121.046 114.354 121.278L122.559 161.909C122.756 162.895 122.119 163.835 121.149 164.033C121.027 164.063 120.906 164.078 120.785 164.078Z" fill="#1E88E5"/>
<path d="M120.724 164.078C120.602 164.078 120.481 164.063 120.36 164.048C119.374 163.851 118.752 162.895 118.949 161.925L127.154 121.294C127.351 120.308 128.307 119.686 129.277 119.883C130.263 120.08 130.885 121.036 130.688 122.006L122.483 162.638C122.316 163.487 121.573 164.078 120.724 164.078Z" fill="#1E88E5"/>
<path d="M115.916 130.256C125.44 120.413 134.798 58.3216 132.159 44.2925C127.746 20.6631 113.231 9.0455 99.627 9C127.215 9.0455 156.623 20.6631 165.601 44.2925C170.925 58.3216 151.951 120.413 132.645 130.256C122.938 135.201 111.29 137.764 99.627 137.87C105.39 137.779 111.123 135.216 115.916 130.256Z" fill="#B6CBFF"/>
<path d="M132.417 57.3962C132.448 57.381 132.493 57.3659 132.524 57.3507L132.615 57.472C132.615 57.472 133.024 57.2597 133.691 56.835C142.26 52.8614 148.509 44.808 149.859 35.1924C153.893 39.7575 159.383 43.0335 165.617 44.3075C168.635 52.3002 163.812 75.8387 155.516 96.45L141.29 106.733L127.989 93.356L127.761 93.4774C130.142 80.8285 131.856 67.4213 132.417 57.3962Z" fill="#BBDEFB"/>
<path d="M165.617 44.3077C159.383 43.0489 153.893 39.7577 149.859 35.1926C148.494 44.8082 142.26 52.8616 133.691 56.8352C133.024 57.2599 132.614 57.4722 132.614 57.4722L132.523 57.3509C132.493 57.3661 132.447 57.3812 132.417 57.3964C132.735 51.6786 132.69 47.068 132.174 44.3077C127.746 20.6631 113.231 9.0455 99.627 9C127.215 9.0455 156.638 20.6631 165.617 44.3077Z" fill="#BBDEFB"/>
<path d="M155.516 96.4509C155.531 96.3903 155.561 96.3296 155.591 96.2689C155.561 96.3296 155.546 96.3903 155.516 96.4509ZM115.916 130.257C120.284 125.753 124.606 110.268 127.761 93.4631L127.988 93.3418L141.289 106.719L155.516 96.4358C149.237 112.057 140.986 126.011 132.66 130.242C122.953 135.186 111.305 137.749 99.6421 137.856C105.39 137.78 111.123 135.217 115.916 130.257Z" fill="#FFCE00"/>
<path d="M153.696 44.2923C153.468 43.5643 153.225 42.8363 152.968 42.1235C152.816 41.714 152.649 41.3197 152.497 40.9253C152.376 40.622 152.27 40.3187 152.149 40.0305C151.921 39.4997 151.678 38.984 151.436 38.4684C151.36 38.3167 151.299 38.165 151.239 38.0134C150.95 37.4219 150.647 36.8304 150.344 36.254C150.313 36.1934 150.283 36.1327 150.253 36.0569C150.131 35.8294 149.995 35.6019 149.858 35.3744C149.874 35.3137 149.874 35.253 149.889 35.1924C153.923 39.7575 159.413 43.0335 165.647 44.3075C167.543 49.2973 166.36 60.3688 163.19 73.0025L163.144 73.1694C162.993 73.7457 162.856 74.322 162.689 74.9135L162.553 75.414C162.432 75.8842 162.295 76.3695 162.159 76.8397C162.128 76.9762 162.083 77.0975 162.052 77.234C161.734 78.4018 161.385 79.5697 161.036 80.7375C160.991 80.874 160.945 81.0105 160.915 81.1621C160.763 81.6778 160.596 82.1935 160.445 82.7091C160.384 82.9063 160.308 83.1186 160.248 83.3158C159.899 84.4229 159.535 85.5301 159.156 86.6524C159.004 87.1074 158.837 87.5624 158.685 88.0174C158.61 88.2146 158.549 88.4269 158.473 88.6241C158.352 88.9881 158.215 89.3369 158.094 89.7009C157.988 90.0042 157.882 90.2924 157.775 90.5957C157.063 92.5674 156.319 94.5239 155.546 96.45L141.881 106.323C150.738 83.9983 156.592 53.6046 153.696 44.2923Z" fill="#B6CBFF"/>
<path d="M165.617 44.3077C159.383 43.0489 153.893 39.7577 149.859 35.1926C149.843 35.2533 149.843 35.3139 149.828 35.3746C139.849 17.7359 119.177 9.0455 99.627 9C127.215 9.0455 156.638 20.6631 165.617 44.3077Z" fill="#FFCE00"/>
<path d="M126.699 130.257C132.038 126.935 137.346 117.669 141.866 106.309L155.531 96.4355C149.252 112.057 141.001 126.01 132.675 130.242C122.968 135.186 111.32 137.749 99.6572 137.855C109.197 137.78 118.737 135.216 126.699 130.257Z" fill="#64B5F6"/>
<path d="M67.3983 44.2925C66.8826 47.068 66.8219 51.7241 67.1556 57.4722C67.8836 57.4571 68.6723 57.4722 69.5368 57.5632C93.2572 59.8079 99.9305 41.9417 99.9305 41.9417V9C86.3261 9.0455 71.8117 20.6631 67.3983 44.2925Z" fill="#FADCDC"/>
<path d="M83.6415 130.256C88.4341 135.2 94.1671 137.763 99.9303 137.869V110.949L71.7812 93.3555C74.9359 110.205 79.2735 125.736 83.6415 130.256Z" fill="#BBDEFB"/>
<path d="M132.463 57.4719C131.735 57.4568 130.946 57.4719 130.082 57.5629C106.361 59.8076 99.688 41.9414 99.688 41.9414V110.949L127.837 93.356C130.203 80.7677 131.902 67.4667 132.463 57.4719Z" fill="#FF9797"/>
<path d="M132.25 44.2925C132.766 47.068 132.827 51.7241 132.493 57.4722C131.765 57.4571 130.976 57.4722 130.112 57.5632C106.392 59.8079 99.7183 41.9417 99.7183 41.9417V9C113.323 9.0455 127.822 20.6631 132.25 44.2925Z" fill="#BBDEFB"/>
<path d="M116.007 130.256C111.214 135.2 105.482 137.763 99.7183 137.869V110.949L127.867 93.3555C124.713 110.205 120.375 125.736 116.007 130.256Z" fill="#FF7166"/>
<path d="M66.9434 57.4719C67.6714 57.4568 68.46 57.4719 69.3245 57.5629C93.045 59.8076 99.7182 41.9414 99.7182 41.9414V110.949L71.5692 93.356C69.2032 80.7677 67.5045 67.4667 66.9434 57.4719Z" fill="#FFE3E3"/>
<path d="M83.6421 130.256C74.1175 120.413 64.7597 58.3216 67.3987 44.2925C71.8122 20.6631 86.3266 9.0455 99.9309 9C72.343 9.0455 42.9351 20.6631 33.9565 44.2925C28.6331 58.3216 47.6064 120.413 66.9134 130.256C76.62 135.201 88.2679 137.764 99.9309 137.87C94.1676 137.779 88.4347 135.216 83.6421 130.256Z" fill="#B6CBFF"/>
<path d="M67.1404 57.3962C67.1101 57.381 67.0646 57.3659 67.0343 57.3507L66.9433 57.472C66.9433 57.472 66.5338 57.2597 65.8664 56.835C57.2973 52.8614 51.0487 44.808 49.6989 35.1924C45.5744 39.86 40.0434 43.0594 33.9409 44.3075C30.9227 52.3002 35.7457 75.8387 44.0418 96.45L58.268 106.733L71.5691 93.356L71.7966 93.4774C69.4154 80.8285 67.7016 67.4213 67.1404 57.3962Z" fill="#B6CBFF"/>
<path d="M33.9414 44.3077C40.1749 43.0489 45.6651 39.7577 49.6994 35.1926C51.0644 44.8082 57.2979 52.8616 65.867 56.8352C66.5343 57.2599 66.9438 57.4722 66.9438 57.4722L67.0348 57.3509C67.0651 57.3661 67.1106 57.3812 67.1409 57.3964C66.8225 51.6786 66.868 47.068 67.3836 44.3077C71.8122 20.6631 86.3266 9.0455 99.931 9C72.3431 9.0455 42.92 20.6631 33.9414 44.3077Z" fill="#FFCE00"/>
<path d="M44.0421 96.4506C44.0234 96.3874 43.998 96.3264 43.9663 96.2686C43.9966 96.3292 44.0118 96.3899 44.0421 96.4506Z" fill="#82AAFF"/>
<path d="M83.6418 130.257C79.2738 125.753 74.9514 110.268 71.7967 93.4631L71.5693 93.3418L58.2682 106.719L44.042 96.4358C50.3209 112.057 58.5715 126.011 66.898 130.242C76.6045 135.186 88.2524 137.749 99.9155 137.856C94.1674 137.78 88.4344 135.217 83.6418 130.257Z" fill="#64B5F6"/>
<path d="M45.8616 44.2923C46.0891 43.5643 46.3317 42.8363 46.5896 42.1235C46.7412 41.714 46.9081 41.3197 47.0597 40.9253C47.1811 40.622 47.2872 40.3187 47.4086 40.0305C47.636 39.4997 47.8787 38.984 48.1214 38.4684C48.1972 38.3167 48.2579 38.165 48.3185 38.0134C48.6067 37.4219 48.91 36.8304 49.2134 36.254C49.2437 36.1934 49.274 36.1327 49.3044 36.0569C49.4257 35.8294 49.5622 35.6019 49.6987 35.3744C49.6835 35.3137 49.6835 35.253 49.6684 35.1924C45.5438 39.86 40.0129 43.0594 33.9103 44.3075C32.0145 49.2973 33.1975 60.3688 36.3673 73.0025L36.4128 73.1694C36.5645 73.7457 36.701 74.322 36.8678 74.9135L37.0043 75.414C37.1256 75.8842 37.2621 76.3695 37.3986 76.8397C37.429 76.9762 37.4745 77.0975 37.5048 77.234C37.8233 78.4018 38.1721 79.5697 38.521 80.7375C38.5665 80.874 38.612 81.0105 38.6423 81.1621C38.794 81.6778 38.9608 82.1935 39.1125 82.7091C39.1731 82.9063 39.249 83.1186 39.3096 83.3158C39.6585 84.4229 40.0224 85.5301 40.4016 86.6524C40.5533 87.1074 40.7201 87.5624 40.8718 88.0174C40.9476 88.2146 41.0083 88.4269 41.0841 88.6241C41.2054 88.9881 41.3419 89.3369 41.4633 89.7009C41.5694 90.0042 41.6756 90.2924 41.7818 90.5957C42.4946 92.5674 43.2378 94.5239 44.0112 96.45L57.6763 106.323C48.819 83.9983 42.9648 53.6046 45.8616 44.2923Z" fill="#BBDEFB"/>
<path d="M33.9414 44.3077C40.1749 43.0489 45.6651 39.7577 49.6994 35.1926C49.7146 35.2533 49.7146 35.3139 49.7298 35.3746C59.7093 17.7359 80.3813 9.0455 99.931 9C72.3431 9.0455 42.92 20.6631 33.9414 44.3077Z" fill="#BBDEFB"/>
<path d="M72.8584 130.257C67.5198 126.935 62.2115 117.669 57.6919 106.309L44.0269 96.4355C50.3058 112.057 58.5564 126.01 66.8828 130.242C76.5894 135.186 88.2373 137.749 99.9004 137.855C90.3606 137.78 80.8209 135.216 72.8584 130.257Z" fill="#FFCE00"/>
<path d="M100.143 153.523C108.636 153.523 117.145 153.508 125.638 153.538C126.836 153.538 128.049 153.675 129.248 153.811C130.658 153.993 130.885 154.509 130.127 155.707C129.202 157.148 128.201 158.543 127.352 160.014C126.305 161.834 125.835 163.806 125.896 165.929C126.002 169.994 125.926 174.058 126.108 178.108C126.199 180.095 126.775 182.066 127.003 184.053C127.367 187.238 126.063 188.967 122.847 189.907C119.42 190.908 115.916 191.136 112.382 190.893C103.419 190.271 94.4706 190.681 85.5072 190.893C83.0351 190.954 80.5023 190.62 78.0908 190.074C73.6622 189.088 72.282 187.147 73.2982 182.87C74.7087 176.986 74.3295 171.055 74.3143 165.141C74.2992 162.471 73.2527 159.999 71.8118 157.709C71.4327 157.102 70.9777 156.526 70.5985 155.919C69.6582 154.463 69.9009 153.932 71.6298 153.72C72.6915 153.599 73.7532 153.508 74.8148 153.508C83.2322 153.523 91.6952 153.523 100.143 153.523Z" fill="#42A5F5"/>
<path d="M129.247 153.81C128.049 153.658 126.851 153.537 125.637 153.537C122.877 153.537 120.117 153.521 117.357 153.521C117.114 154.492 117.023 155.508 117.038 156.555C117.144 160.619 117.068 164.684 117.25 168.734C117.341 170.72 117.918 172.692 118.145 174.679C118.509 177.864 117.205 179.593 113.99 180.533C110.562 181.534 107.058 181.762 103.525 181.519C94.5613 180.897 85.613 181.307 76.6496 181.519C75.6334 181.549 74.6021 181.489 73.5708 181.398C73.4798 181.883 73.3736 182.383 73.2523 182.869C72.2361 187.146 73.6163 189.072 78.0449 190.073C80.4564 190.619 82.9892 190.952 85.4613 190.892C94.4248 190.695 103.373 190.285 112.336 190.892C115.87 191.134 119.389 190.907 122.801 189.906C126.017 188.966 127.321 187.237 126.957 184.052C126.729 182.065 126.153 180.093 126.062 178.106C125.88 174.057 125.956 169.992 125.85 165.928C125.789 163.804 126.274 161.833 127.306 160.013C128.155 158.526 129.171 157.146 130.081 155.705C130.885 154.507 130.658 153.992 129.247 153.81Z" fill="#42A5F5"/>
</svg>
