<svg width="64" height="64" viewBox="0 0 64 64" fill="none" xmlns="http://www.w3.org/2000/svg">
<g clip-path="url(#clip0_416_1121)">
<path d="M32 0C25.671 0 19.4841 1.87677 14.2218 5.39297C8.95939 8.90918 4.85787 13.9069 2.43587 19.7541C0.013865 25.6014 -0.619842 32.0355 0.614885 38.2429C1.84961 44.4503 4.89732 50.1521 9.3726 54.6274C13.8479 59.1027 19.5497 62.1504 25.7571 63.3851C31.9645 64.6199 38.3986 63.9861 44.2459 61.5641C50.0931 59.1421 55.0908 55.0406 58.607 49.7782C62.1232 44.5159 64 38.329 64 32C64 23.5131 60.6286 15.3737 54.6274 9.37258C48.6263 3.37142 40.4869 0 32 0ZM13.3333 52C13.3333 47.0493 15.3 42.3013 18.8007 38.8007C22.3014 35.3 27.0493 33.3333 32 33.3333C29.8903 33.3333 27.828 32.7077 26.0739 31.5356C24.3198 30.3636 22.9526 28.6977 22.1453 26.7486C21.3379 24.7995 21.1267 22.6548 21.5383 20.5856C21.9499 18.5165 22.9658 16.6159 24.4576 15.1241C25.9493 13.6324 27.8499 12.6165 29.9191 12.2049C31.9882 11.7933 34.1329 12.0046 36.082 12.8119C38.0311 13.6193 39.697 14.9864 40.8691 16.7406C42.0411 18.4947 42.6667 20.557 42.6667 22.6667C42.6667 25.4957 41.5429 28.2088 39.5425 30.2091C37.5421 32.2095 34.829 33.3333 32 33.3333C34.4514 33.3333 36.8787 33.8161 39.1434 34.7542C41.4082 35.6923 43.466 37.0673 45.1994 38.8007C46.9327 40.534 48.3077 42.5918 49.2458 44.8566C50.1839 47.1213 50.6667 49.5487 50.6667 52H13.3333Z" fill="#8A8A8A"/>
</g>
<defs>
<clipPath id="clip0_416_1121">
<rect width="64" height="64" fill="white"/>
</clipPath>
</defs>
</svg>
